<svg xmlns="http://www.w3.org/2000/svg" width="238.249" height="36.55" viewBox="0 0 238.249 36.55"><defs><style>.a{fill:#f0bfc1;}</style></defs><g transform="translate(-582.916 -221.414)"><g transform="translate(582.916 221.414)"><path class="a" d="M601.506,257.964a20,20,0,0,1-7.573-1.4,17.131,17.131,0,0,1-9.681-9.7,20.037,20.037,0,0,1,0-14.389,17.31,17.31,0,0,1,3.792-5.809,17.6,17.6,0,0,1,5.889-3.863,20,20,0,0,1,7.573-1.4,19.742,19.742,0,0,1,7.564,1.41,17.628,17.628,0,0,1,5.864,3.875,17.378,17.378,0,0,1,3.779,5.807,19.978,19.978,0,0,1,0,14.366,17.108,17.108,0,0,1-9.645,9.7A19.9,19.9,0,0,1,601.506,257.964Zm0-34.632a18.1,18.1,0,0,0-6.849,1.254,15.7,15.7,0,0,0-5.252,3.44,15.4,15.4,0,0,0-3.372,5.17,18.12,18.12,0,0,0,0,12.962,15.214,15.214,0,0,0,8.624,8.633,19.287,19.287,0,0,0,13.686,0,15.2,15.2,0,0,0,8.59-8.633,18.059,18.059,0,0,0,0-12.94,15.476,15.476,0,0,0-3.361-5.171,15.742,15.742,0,0,0-5.231-3.452A17.857,17.857,0,0,0,601.506,223.332Zm0,28.12a11.593,11.593,0,0,1-4.425-.8,8.933,8.933,0,0,1-3.357-2.385,10.563,10.563,0,0,1-2.062-3.742,17.052,17.052,0,0,1,0-9.662,10.568,10.568,0,0,1,2.062-3.743,9.037,9.037,0,0,1,3.351-2.393,11.441,11.441,0,0,1,4.43-.819,11.283,11.283,0,0,1,4.4.82,9.061,9.061,0,0,1,3.338,2.392,10.564,10.564,0,0,1,2.062,3.744,17.064,17.064,0,0,1,0,9.662,10.563,10.563,0,0,1-2.062,3.743,8.959,8.959,0,0,1-3.343,2.383A11.438,11.438,0,0,1,601.506,251.452Zm0-21.631a9.545,9.545,0,0,0-3.689.67,7.137,7.137,0,0,0-2.649,1.887,8.675,8.675,0,0,0-1.682,3.072,15.165,15.165,0,0,0,0,8.48A8.667,8.667,0,0,0,595.168,247a7.021,7.021,0,0,0,2.644,1.874,9.688,9.688,0,0,0,3.694.66,9.526,9.526,0,0,0,3.657-.659A7.053,7.053,0,0,0,607.8,247a8.674,8.674,0,0,0,1.682-3.071,15.182,15.182,0,0,0,0-8.48,8.676,8.676,0,0,0-1.682-3.072,7.171,7.171,0,0,0-2.639-1.887A9.4,9.4,0,0,0,601.506,229.821Z" transform="translate(-582.916 -221.414)"/></g><g transform="translate(625.555 222.373)"><path class="a" d="M674.336,248.406a1.581,1.581,0,0,1,.558.1,1.525,1.525,0,0,1,.535.361l3.117,3.28a12.942,12.942,0,0,1-5.129,4.035,17.947,17.947,0,0,1-7.292,1.36,17.372,17.372,0,0,1-6.919-1.314,14.97,14.97,0,0,1-5.187-3.629,15.971,15.971,0,0,1-3.267-5.489,20.259,20.259,0,0,1-1.14-6.9,18.189,18.189,0,0,1,1.3-6.967,16.24,16.24,0,0,1,3.64-5.477,16.413,16.413,0,0,1,5.594-3.582,19.5,19.5,0,0,1,7.187-1.279,18.343,18.343,0,0,1,3.594.337,17.615,17.615,0,0,1,3.152.93,14.863,14.863,0,0,1,2.7,1.419,13,13,0,0,1,2.186,1.826l-2.652,3.558a3.363,3.363,0,0,1-.6.593,1.573,1.573,0,0,1-.977.267,1.739,1.739,0,0,1-.792-.186,8.669,8.669,0,0,1-.79-.453q-.419-.268-.919-.582a7.157,7.157,0,0,0-1.187-.582,9.956,9.956,0,0,0-1.6-.453,10.96,10.96,0,0,0-2.152-.186,9.829,9.829,0,0,0-3.907.756,8.57,8.57,0,0,0-3.035,2.163,10.03,10.03,0,0,0-1.977,3.408,13.365,13.365,0,0,0-.71,4.489,13.949,13.949,0,0,0,.71,4.629,10.15,10.15,0,0,0,1.931,3.408,8.177,8.177,0,0,0,2.849,2.1,8.5,8.5,0,0,0,3.489.721,16.871,16.871,0,0,0,1.954-.1,8.106,8.106,0,0,0,1.64-.361,7.627,7.627,0,0,0,1.442-.663,9.621,9.621,0,0,0,1.383-1.012,2.764,2.764,0,0,1,.6-.384A1.579,1.579,0,0,1,674.336,248.406Z" transform="translate(-649.612 -222.914)"/></g><g transform="translate(660.769 222.373)"><path class="a" d="M729.419,248.406a1.581,1.581,0,0,1,.558.1,1.525,1.525,0,0,1,.535.361l3.117,3.28a12.941,12.941,0,0,1-5.128,4.035,17.949,17.949,0,0,1-7.292,1.36,17.375,17.375,0,0,1-6.92-1.314A14.967,14.967,0,0,1,709.1,252.6a15.983,15.983,0,0,1-3.268-5.489,20.275,20.275,0,0,1-1.14-6.9,18.176,18.176,0,0,1,1.3-6.967,16.23,16.23,0,0,1,3.64-5.477,16.406,16.406,0,0,1,5.594-3.582,19.491,19.491,0,0,1,7.186-1.279,18.349,18.349,0,0,1,3.594.337,17.608,17.608,0,0,1,3.151.93,14.848,14.848,0,0,1,2.7,1.419,13.032,13.032,0,0,1,2.186,1.826l-2.652,3.558a3.347,3.347,0,0,1-.6.593,1.573,1.573,0,0,1-.977.267,1.738,1.738,0,0,1-.791-.186,8.766,8.766,0,0,1-.791-.453q-.418-.268-.919-.582a7.148,7.148,0,0,0-1.186-.582,9.946,9.946,0,0,0-1.605-.453,10.954,10.954,0,0,0-2.151-.186,9.827,9.827,0,0,0-3.907.756,8.566,8.566,0,0,0-3.035,2.163,10.031,10.031,0,0,0-1.977,3.408,13.349,13.349,0,0,0-.71,4.489,13.931,13.931,0,0,0,.71,4.629,10.158,10.158,0,0,0,1.93,3.408,8.189,8.189,0,0,0,2.849,2.1,8.5,8.5,0,0,0,3.489.721,16.872,16.872,0,0,0,1.954-.1,8.087,8.087,0,0,0,1.64-.361,7.627,7.627,0,0,0,1.442-.663,9.618,9.618,0,0,0,1.384-1.012,2.775,2.775,0,0,1,.6-.384A1.584,1.584,0,0,1,729.419,248.406Z" transform="translate(-704.694 -222.914)"/></g><g transform="translate(698.635 222.745)"><path class="a" d="M771.832,257.384h-7.908V223.5h7.908Z" transform="translate(-763.924 -223.496)"/></g><g transform="translate(717.476 222.745)"><path class="a" d="M793.394,257.384V223.5h12.467a23.709,23.709,0,0,1,5.977.651,11.391,11.391,0,0,1,4.024,1.838,6.964,6.964,0,0,1,2.268,2.884,9.755,9.755,0,0,1,.709,3.791,7.446,7.446,0,0,1-.325,2.2,6.486,6.486,0,0,1-1.023,1.988,7.623,7.623,0,0,1-1.791,1.686,11.542,11.542,0,0,1-2.628,1.314,9.335,9.335,0,0,1,4.954,2.64,6.836,6.836,0,0,1,1.605,4.687,9.682,9.682,0,0,1-.838,4.024,9.2,9.2,0,0,1-2.454,3.244,11.642,11.642,0,0,1-3.989,2.163,17.344,17.344,0,0,1-5.42.779Zm7.861-19.63h4.094a13.5,13.5,0,0,0,2.349-.186,4.883,4.883,0,0,0,1.779-.651,3,3,0,0,0,1.116-1.279,4.8,4.8,0,0,0,.384-2.046,5.759,5.759,0,0,0-.3-2.012,2.884,2.884,0,0,0-.93-1.291,3.915,3.915,0,0,0-1.593-.7,10.954,10.954,0,0,0-2.291-.21h-4.606Zm0,5.256v8.443h5.536a6.933,6.933,0,0,0,2.546-.4,4.026,4.026,0,0,0,1.547-1.023,3.44,3.44,0,0,0,.767-1.419,6.229,6.229,0,0,0,.209-1.605,5.349,5.349,0,0,0-.244-1.674,2.767,2.767,0,0,0-.837-1.256,4.1,4.1,0,0,0-1.57-.791,9.155,9.155,0,0,0-2.466-.279Z" transform="translate(-793.394 -223.496)"/></g><g transform="translate(749.898 222.745)"><path class="a" d="M878.393,257.384H872.3a2.819,2.819,0,0,1-1.686-.476,2.464,2.464,0,0,1-.919-1.221l-2-5.908H854.808l-2,5.908a2.694,2.694,0,0,1-2.559,1.7h-6.141L857.227,223.5h8.048Zm-21.77-12.955h9.257l-3.117-9.281q-.3-.883-.709-2.082t-.8-2.594q-.373,1.419-.768,2.628t-.744,2.094Z" transform="translate(-844.109 -223.496)"/></g><g transform="translate(791.579 222.745)"><path class="a" d="M914.308,223.542a2.215,2.215,0,0,1,.627.175,2.109,2.109,0,0,1,.535.361,6.121,6.121,0,0,1,.582.628l16.1,20.352q-.092-.977-.139-1.9t-.047-1.733V223.5h6.931v33.888H934.8a3.772,3.772,0,0,1-1.535-.279,3.278,3.278,0,0,1-1.21-1.024l-15.979-20.189q.069.885.116,1.733t.047,1.593v18.165h-6.931V223.5h4.14A6.76,6.76,0,0,1,914.308,223.542Z" transform="translate(-909.307 -223.496)"/></g></g></svg>