<?xml version="1.0" encoding="utf-8"?>
<!-- Generator: Adobe Illustrator 24.0.3, SVG Export Plug-In . SVG Version: 6.00 Build 0)  -->
<svg version="1.1" id="Layer_1" xmlns="http://www.w3.org/2000/svg" xmlns:xlink="http://www.w3.org/1999/xlink" x="0px" y="0px"
	 viewBox="0 0 1000 1000" style="enable-background:new 0 0 1000 1000;" xml:space="preserve">
<style type="text/css">
	.st0{fill:#CCDDD0;}
</style>
<g>
	<path class="st0" d="M897.81,492.77c0.86-0.98,1.67-3.68,0.43-3.53l-2.45,4.15L897.81,492.77z"/>
	<path class="st0" d="M893.78,482.02c-2.01,1.68-4.6,5.12-5.09,9.51c2.54-3.92,2.22-2.01,5.27-6.68c1.25-0.14,1.35,2.1,0.58,3.67
		c0.79-1.01,1.24,1.55,2.85-1.03c-0.06-3.91-1.9-4.73-4.67-2.51C892.65,483.86,893.41,482.82,893.78,482.02z"/>
	<path class="st0" d="M780.47,472.31l0.77,0.5C781.02,472.52,780.76,472.37,780.47,472.31z"/>
	<path class="st0" d="M711.59,468.69c0.54-0.05,0.81-0.5,0.89-0.93C711.95,468.02,711.52,468.27,711.59,468.69z"/>
	<path class="st0" d="M700.11,462.22c0.25,0.18,0.46,0.27,0.68,0.39C700.56,462.15,700.31,461.89,700.11,462.22z"/>
	<path class="st0" d="M780.47,472.31l-1.98-1.33C778.49,472.52,779.54,472.04,780.47,472.31z"/>
	<path class="st0" d="M876.48,489.33c0.4-0.16,0.78-0.54,1.17-1.05c-0.33,0.15-0.65,0.26-0.97,0.33
		C876.61,488.85,876.56,489.06,876.48,489.33z"/>
	<path class="st0" d="M811.1,465.68l0.58-0.06c0.12-0.55,0.23-1.22,0.32-1.96L811.1,465.68z"/>
	<path class="st0" d="M835.43,463.39c-0.57-0.16-0.62,3.86-0.76,5.62c0.25-1.66,0.63-2.46,1.11-2.78
		C835.76,465.46,835.66,464.55,835.43,463.39z"/>
	<path class="st0" d="M874.21,472.31l0.77-0.42C874.77,472.03,874.45,472.14,874.21,472.31z"/>
	<path class="st0" d="M793.92,466.38c-0.1-0.59-0.23-1.11-0.35-1.41C793.62,465.47,793.75,465.94,793.92,466.38z"/>
	<path class="st0" d="M127.75,493.71c0.03-0.29,0-0.47,0.02-0.71C127.62,493.39,127.57,493.68,127.75,493.71z"/>
	<path class="st0" d="M100.62,473.06l0.39-0.21c0.06-0.76,0.12-1.51,0.14-2.25L100.62,473.06z"/>
	<path class="st0" d="M677.61,455.24c0.04,0.05,0.06,0.05,0.1,0.08C678.36,454.9,678,454.96,677.61,455.24z"/>
	<path class="st0" d="M475.14,467.39c2.2,3.65-3.83,4.52-0.49,8.6C474.37,474.41,477.93,469.79,475.14,467.39z"/>
	<path class="st0" d="M876.03,488.7c-0.3-0.01-0.6-0.03-0.89-0.13C875.52,488.78,875.79,488.82,876.03,488.7z"/>
	<path class="st0" d="M474.65,475.99l0,0.03l0.35,0.39C474.85,476.23,474.77,476.13,474.65,475.99z"/>
	<path class="st0" d="M623.98,460.3c0.19,0.69,0.46,1.2,0.73,1.69C624.64,461.58,624.46,461.09,623.98,460.3z"/>
	<path class="st0" d="M663.6,463.1l-0.99-0.53C663.01,462.93,663.32,463.05,663.6,463.1z"/>
	<path class="st0" d="M605.09,468.34c-0.54-0.24-0.77-0.78-1.39-0.16c0.09,0.19,0.17,0.33,0.27,0.46
		C604.15,468.07,604.45,467.77,605.09,468.34z"/>
	<path class="st0" d="M585.11,470.52c0.13,0.3,0.29,0.51,0.44,0.77c0.19-0.09,0.42-0.19,0.61-0.28L585.11,470.52z"/>
	<path class="st0" d="M189.94,493.42c-0.42-1.14-0.66-2.4-0.85-3.64C189.33,492.65,186.3,493.59,189.94,493.42z"/>
	<path class="st0" d="M876.91,487.11c-0.3,0.97-0.56,1.44-0.88,1.6c0.22-0.01,0.44-0.05,0.65-0.1
		C876.85,488.03,876.97,487.48,876.91,487.11z"/>
	<path class="st0" d="M608.09,499.93l-3.35-0.19C605.7,500.01,606.91,500.07,608.09,499.93z"/>
	<path class="st0" d="M336.63,496.74l-0.76,0.46C336.16,497.3,336.42,497.19,336.63,496.74z"/>
	<path class="st0" d="M594.93,501.42c-0.74-1.35-1.46-2.11-2.17-2.58c-0.11,0.33-0.24,0.6-0.29,1.07L594.93,501.42z"/>
	<path class="st0" d="M189.08,489.74l0.01,0.04L189.08,489.74z"/>
	<path class="st0" d="M167.43,498.72c3.09,0.2,1.59-5.13,2.33-8.15c3.73-1.4,1.61,3.93,2.79,6.67c2.34-1.34,4.24-6.14,5.96-5.89
		c0.11,0.87,0.43,1.2,0.01,2.28c2.55-4.14,7.24-0.01,10.23-5.21c0.2,0.47,0.29,0.92,0.34,1.32c-0.39-2.66-0.39-5.35-0.24-7.26
		c1.39-0.05,2.66-3.27,3.09,0.2c-0.85-0.12-0.96,1.27-1.38,2.33l1.49-1.46c1.18,5-2.03,1.66-2.13,5.33c2.88-1.54,6.29-5.56,8.43-4.1
		c0.33,4.87-5.12,1.5-2.34,5.9l-3.31-1.94c2.37,7.73-2.03-0.59,0.11,7.67c4.39,1.52,5.01-2.34,9.39-0.81c1.07-2.67-0.22-4,0.84-6.67
		c6.4-4.68,4.61,12.34,9.4,6c1.28-3.2,1.91-9.34,5.1-6l-1.27,5.46c4.27,0.66,2.65-7.83,7.04-4.02c-0.85,2.14-3.41,1.73-2.78,2.4
		c2.79,4.41,2.14-3.06,4.37-3l0.33,4.88c4.58-0.64,9.7-4.02,14.77-4.78c-0.32,1.44-1.22,2.94-0.08,4.46
		c6.43-2.26,13.58,0.95,19.65,4l2.46-4.13c0.54,0.06,0.96,1.92,0.35,2.72c2.35,1.66,0.19-2.66,1.39-4.28
		c1.37-0.26,1.74,2.46,0.84,3.7c4.32-3.45,12.24-7.35,16.57-2.73l-0.9,1.22c3.42,1.8,4.14-8.5,7.25-4.5l-0.64,0.73
		c7.48,2.02,15.89-1.6,21.46,4.88c1.25-6.02,7.37,2.89,8.08-5.53c4.19,4.29,2.91,5.77,8.89,8.74c1.61,0.43,2.55-5.2,4.57-6.03
		l-0.07,4.41l2.83-4.55l1.3,5.31l1.9-1.08c-0.74-0.28-1.53-2.02-1.39-3.29c2.98-1.92,7.05,3.26,7.07,5.52l7.02-3.54
		c-0.2,1.77-1.38,2.35-2.32,3.45c3.82-4.4,0.55,4.66,4.04,0.63c-0.43-1.01,0.32-2.62,0.42-3.51c1.62,2.71,5.46,2.84,8.33,1.79
		l-0.63,3.02c5.12,0.91,10.87-1.17,16.63-0.96c-2.03-1.47-1.42-6.72,0.29-7.19l0.55,4.68c1.17-2.85-1.72-1.81,0.62-5.27
		c2.14,0.59,1.31,5.34,0.03,6.82l2.66-1.55c0.12,1.39-0.52,2.11-0.72,3.88c1.15-2.87,4.39,4.79,6.08-0.19l0.11,1.39
		c5.76,0.19,8.42-1.34,13.12-1.45c0.2-4.02,2.01-3.08,3.5-6.29c3.41,1.38,7.16,4.64,11.33,4.41c2.97-1.92,0.94-3.38,2.32-5.74
		c0.12,3.67,4.28,3.44,2.05,6.01c5-0.47,6.39-0.56,12.78-3.37c-0.64-1.52-1.4-2.19-0.97-3.43c1.16-0.57,2.56,1.61,2.35,3.36
		l-0.31,0.37c7.23-5.31,16.06,11.11,21.9,3.62l-0.33,0.37l5.95-3.82c2.68,0.7-1.69,2.71,0.24,5.03c6.47-5.95,9.96,1.14,15.28-2.8
		c3.79,10.9,14.35-0.43,19.71,6.56l-0.27-2.55c1.46-2.47,1.69,1.48,2.73,2.08c-0.12-1.98-1.5-2.31-0.6-3.68
		c12.02-2.88,24.76,4,37.3,6.13c4.59,0.62,2.37-13.21,8.2-7.24l-1.53,4.76c9.04-5.86,18.87-0.32,27.67-5.66
		c-0.47,1.12-0.41,2.53-1.29,2.56c2.1,3.35,7.09-0.26,6.92-3.06c1.43,0.22,0.49,2.5,1.46,3.87c2.07,1.9,4.5-4.7,5.77-1.38
		c0.22,0.54-0.45,1.15-0.79,1.45c1.13-1.76,5.88-0.05,4.35-3.9c3.56,1.63,6.32-2.34,9.25-0.26c1.31-4.56,6.03,1.52,5.9-4.77
		c0.47,6.47,6.5,4.51,8.21,1.23c-0.47,2.03,2.07,1.79,1.57,4.58c2.4-0.38,4.42-1.85,3.6-5.09c5.34,7.14,8-7.27,11.64,2.28
		c6.51-4.3,12.6-7.36,18.62-9.41c0.38,6.42-6.74,1.29-5.79,8.01c5.48-3.23,8.39-9.06,14.26-7.89c1.53,0.8-0.66,2.84-1.08,3.98
		c5.58-3.05,10.95,0.01,15.9-3.5c-0.01,0.6-0.55,1.26-1.06,1.75c0.98-0.21,2.28,0.94,2.18-1.99l-0.97,0.8
		c-1.64-4.28,4.05-8.88,4.34-11.09c-1.91,8.35,5.08,2.25,2.01,12.78c0.67-0.52,1.54-1.88,1.47-3.84c0.96,0.61,1.21,1.77,0.14,3.96
		c3.62-1.45,2.52-4.62,5.81-4.36c-0.1,1.42-0.8,1.93-1.23,3.57c1.8-2.67,3.69-5.33,6.42-3.91c-0.23,0.84,0,1.98-0.83,1.89
		c4.81-0.06,8.92-6.65,14.06-3.44c-2.22,5.98,1.63,2.21,1.35,7.55l3.07-1.27l-0.89-2.7c2.53,0.36,5.22-3.26,7.24-1.29l-2.14,1.98
		l4.93-0.49l-2.52-2.3c2.89-2.46,0.44-6.75,3.7-4.91c-0.75,0.47,2.56,0.34,3.59,3.6l-0.01,0.01c1.45-1.57,2.93-3.2,4.72-1.71
		c0.34,1.75-0.96,5.84-0.74,7c1.68-4.31,6.25-0.67,8.25-5.3c-0.62,1.07-0.87,3.86-0.74,4.45l1.35-3.53
		c1.12,1.24,1.27,1.81,0.91,4.03c3.64,0.92-0.69-6.84,3.45-3.63c-0.36,0.27-0.23,0.82-0.98,1.32c4.3,1.81,8.57-1.82,12.55,0.01
		c1.11,5.41-3.59,1.26-2.32,5.81c6.05-0.89,12.25-6.34,17.85-5.34l-1.07-0.56c0.47-7.63,4.34,3.66,7-0.12
		c-0.66,0.6-0.69,4.26-0.54,3.4c3.91,0.96,7.78-2.29,13.29-5.17l-0.56,2c2.37,1.55,5.99,0.54,8.45,1.19c0.54-2,1.94-1.81,0.85-4.56
		c8.41,10.39,13.5-7.26,20.83,1.38c-0.77,0.09-1.69,1.86-1.07,1.82l5.35-2.28c-0.72-3.26-0.89-1.93-2.28-4.39
		c0.53-2.01,1.97-3.67,3.34-3.79c-2.31,2.41,0.48,5.27,1.68,7.04c-0.26-1,0.01-2.14-0.16-3.16c3.35,5.64-0.04-6.67,4.22-3.02
		l-0.08,1.75c1.41-1,2.61-3.39,4.25-3.01c0.91,3.77-1.45,1.9-1.34,5.05c2.19-0.41,3.95-7.49,6.2-3.81
		c-0.89,1.12-2.25,1.21-3.13,2.31c2.46,4.36,2.63,3.21,4.29,3.84l-0.16-0.09l3.81,1.83l-1-1.17c2.37-10.13,5.51-1.98,9.13-8.62
		c-3.56,6.27-0.54,3.59-0.76,7.93c0.96,1.18,2.39,2.5,2,3.72c1.72-3.55,2.81,2.78,5.27-2.31c0.09,1.4,1.83,0.16,1.37,3.66
		c2.22-1.06-0.46-2.43-0.25-4.18c1.77-2.34,3.81-0.94,5.92,0.47c2.13,1.36,4.35,2.51,7.08-0.6c4.43-2.2,5.8-6.75,10.27-8.58
		c1.04,2.37-1.86,4.89-1.86,4.89c1.9,2.24,3.46,2.3,5.79,1.06c-0.63,1.12-0.39,2.21-0.09,3.87c1.64-0.06,2.06-4.78,3.77-2.37
		c-0.7,1.45-1.68,3.8-2.73,5.19c2.08-0.96,4.46-3.09,6.69-3.74c-0.1,2.49-2.04,3.27-3.04,4.64c2.3-0.51,5.91-0.7,7.68-4.21
		l-1.02-1.69c0.85,0.04-0.5,3.28-1.26,3.81c-2.6,2.43-2.27-1.99-2.05-3.38l1.61-0.5c0.34-4.14-1.22-4.22-3.1-3.39
		c-1.9,0.84-4.14,2.8-5.49,2.27l2.37-5.61c-1.34,1.42-2.64,2.85-3.91,4.29c-0.34-1.64-0.23-5,1.4-5.6c-1.64-3.3-2.23,1.73-3.54-1.85
		c-0.13-0.54,0.01-0.81,0.24-1.01c-0.8,0.45-1.59,0.98-2.38,1.47c0.59-1.19,0.24-4.2,1.43-3.19c-3.45-3.88-6.73,3.68-7.67-0.98
		l0.36-0.33c-5.51,1.46-0.97,4.26-5.27,9.07c-0.58-3.64-1.22-7.27-1.91-10.92l-0.79,4.32c-0.53-0.19-1.6-0.59-1.31-2.32
		c-2.19,2.86,0.25,1.92-1.06,4.66c-2.46-4.18-7.18,1.7-7.67-5.3c-0.97,3.3,2.46,2.6-0.34,4.86c-0.75-7.47-3.22,1.17-5.59-2.16
		c0.68-3.88,3-1.89,0.55-5.28c-1.36,6.56-4.73-1.32-6.78-0.02c0.07,5.16-4.33,2.32-7.63,4.26c0.12-1.78-6.54-2.51-9.82-4.1
		l0.03-0.88c-0.21,5.29-3.52,4.52-5.77,5.82c-0.17-3.14,0.14-4.42,1.3-5.92l-2.21,0.21c-0.38,1.72-0.99,2.67-2.36,3.39l0.21-3.96
		c-2.92,0.48-5.51,5.12-9.49,2.87c0.13,3.67,3.93,9.88,0.2,12.68c-0.33-1.96-0.79-5.32,0.17-6.22c-0.32,0.29-1.06,1.75-1.82,0.97
		l1.27-3.47c-1.84-1.3-0.63,2.86-2.02,2.68c-0.24-2.82-1.2-1.91-1.21-4.16c0.32-0.3,1.3,1.05,1.72-0.1
		c-1.58-0.36-3.6-1.85-4.42-3.92c0.29,1.59,0.36,3.79-0.73,4.26c-2.88,0.47-1.31-3.29-3.13-4.59c-0.52,2.02-2.55,0.16-2.21,4.37
		c-0.85,0.06-1.18-1.89-1.61-3c-1.34,2.01-6.91,1.13-4.86,5.46l0.41,0.26c-0.06,0.09-0.15,0.1-0.23,0.2l0.01,0l-0.01,0
		c-4.58,4.61-10.36-1.57-15.05,0.49l-0.07-1.41c-2.81,1.83-6.34,1.23-8.31,4.35c-0.86,0.03-2.09-2.51-1.77-4.2
		c-2.16,1.14-2.4,2.75-5.57,0.4c2.16-2.46-0.76-2.18,2.22-1.8c-2.83-1.23-3.41-3.49-6.46,0.37c1.06-3.63-2.02-4.52-3.35-3.52
		l1.89,2.63c-1.51,0.53-2.81,0.13-4.12-0.21l0.88-4.73c-5.21-5.98-10.86,9.3-14.55-0.74c-1.81,3.19,2.94,2.59,1.26,6.36
		c-2.64-0.85-4.8-7.92-5.62-8.01c-3.38-2.97-4.09,6.59-7.79,4.4c0.32,1.74,0.33,6.3-2.76,7.58c-2.66-0.91-2.6-7.44-0.73-8.61
		c0.67-0.07,0.92,0.5,0.83,1.06c0.94-0.52,2.17-1.12,1.29-3.07l-0.53,1.65c-1.15-1.86-4.93-2.09-3.75-4.76
		c-2.23,1.39-1.18,2.67,0.26,3.71c-3.23-2.82-5.47-0.66-8.95-2.68c0.49,0.99,0.81,3.03,0.24,2.95c-5.14-2.64-2.68,2.96-6.38,3.35
		c-1.82-2.77,1.33-6.08-2.55-4.27c-2.11-1.94-0.08-4.53,0.96-5.83c-3.69,2.96-6.21-2.69-8.18-3.43l1.94-1.23
		c-1.16,0.73-2.06,0.64-2.98,0.56l0.81,3.46c-1.03-0.67-1.94-0.75-1.83-2.15c-1.25,2.15,0.46,5.68-1.9,8.59
		c-1.32-1.81-4.38,1.6-4.67-2.91c4.43,1.74-0.28-4.56,3.6-5.08c-0.78,0.5-1.67,0.41-2.74-0.23c-0.14-0.51,0.2-0.93,0.51-1.17
		c-4.27-4.19-2.24,4.97-6.75,4.76c0.64-2.53-0.96-4.84-1.73-4.31c1.87,0.09,0.79,4.25-0.89,6.16c-2.88-2-3.14,1.47-4.64,1.24
		l1.72,0.92c-0.57,2.55-1.99,2.19-3.94,3.05c-0.21-1.97,1.77-1.4,1.05-2.26c-2.08,4.51-5.1-4.52-8.09-1.36
		c-1.51-1.65-0.36-4.76-1.69-5.87c-3.28,3.5-4.01-3.27-7.48-0.28c1.31,3.32,1.4,2.48-0.87,5.99l5.76-2.81l-3.46,5.2
		c1.76-0.1,3.6-2.38,4.71-1.87c-1.64,2.89-1.49,2.03-0.48,4.81c-2.75-4.98-4.54,3.29-7.55,0.06l-0.61-8.43
		c-4.59-3.38-7.11,4.98-12.69,3.46l1.89,1.27c-0.36,3.41-3.27,0.82-4.84,2.38c-0.16-2.83-1.36-3.72-2.31-5.38
		c0.33,2.07-3.94,0.28-3.74,5.93l-2.82-3.4c-4.47-0.98-3.88,8.59-8.09,8.14c0.85-3.2-1.25-4.95,1.21-7.47
		c-1.37,0.14-2.65-0.22-2.43,1.72c-1.01-1.66-3.31,4.24-4.87,1.73c-0.42,1.3-0.26,4.26-1.81,4.21c-0.23-0.55-0.16-1.38-0.16-1.38
		c0.16,1.39-2.16,2.16-0.46,5.11c-5.17-8.23-11.63,1.92-15.98-5.29c-2.84,1.23-6.32,2.39-8.98,2.82c0.11-0.86-0.1-1.4,0.43-1.15
		c-3.87-2.34-1.69,8.25-6.13,5.61c-2.45-4.41,2.08-2.61,0.62-4.25c-1.18-9.23-4.99,1.61-8.14-3.68l0.65-0.58
		c-2.31-3.04-5.07,3.81-8.66,3.28c0,0,0.14-0.83-0.04-1.4c-2.21,4.85-6.78,6.58-10.19,7.98c0.97-3.67,1.5-1.97,0.75-5.64
		c-1.52,0.57,0.63,5.92-2.43,7.04c-1.05-1.95-3.31-3.66-3.69-7.59l2.88-0.27c-1.6-5.06-3.72,0.25-5.26-0.61l0.15-2.23
		c-4.38,0.82-4.37,6.42-9.15,6.07l0.51,1.69c-2.57,5.59-2.21-3.1-4.79,1.04l-0.81-5.65c-1.71,1.36-6.01,5.49-9.12,6.52
		c1.77-4.17,5.38-6.32,7.6-8.81c-1.7-0.04-5.77,0.43-6.67,3.2c0.69-0.54,1.56-1.92,2.23-1.05c-2.09,4.43-4.87,6.6-8.29,6.49
		c0.69-10.94-8.86-2.84-11.21-11.39c-6.08,3.95-11.89-1.93-18.92-1.45c2.29,8.57-2.06,0.19-1.83,8.95
		c-1.65,0.52-2.28,0.37-2.41-0.21l-4.84-5.35c-1.11-2.58,1.61-1.89,1.51-3.85c-3.57-0.76-1.41-3.75-3.72-6.13
		c0.41,3.14-1.36,4.45-3.38,3.2L467,468c-5.14,4.52-4.15-7.45-9.33-2.98l1.67-2.71c-2.64,1.55-9.59-0.31-12.33,6.65
		c-0.43-1.02-0.98-3.43,0.18-4.03c-6.19-1.22-14.04,7.11-18.75,2.65l0.53-2.12c-1.18,0.59-2.13,3.96-3.52,1.77
		c0.1-0.88,0.52-2.12-0.01-2.26c-0.63,0.72-3.18,3.66-4.68,2.38l1.38-2.37c-5.99-2.96-9.46,5.61-14.58,6.94
		c0.18-6.29-4.54-8.47-6.89-9.55l0.11-0.89c-7.04-0.97-12.13,4.9-18.74,7.2c-3.88-6.94-13.67-3.22-20.09-7.23
		c0.97,1.17-0.29,4.9-1.47,5.5c-1.5-1.31-4.35,4.25-3.95-1.51l0.54,0.13c-1-5.69-4.19-4.27-6.64-4.49l-0.61,7.54
		c-6.13-11.15-16.94,3.59-20.19-6.34c-1.6,1.85-3.52,1.77-5.11,3.62l0.19-4.05c-4.27-1.15-6.4-1.71-11.74-0.89l1.16-2.87
		c-2.99-0.34-4.09,11.57-6.86,11.74l-0.67-6.07c-5.23-0.04-10.38-5.49-15.68-0.15c0.11-0.88,0.31-2.63,1.16-2.85
		c-2.46-0.22-9.41-4.34-8.73,3.98c0.08-5.4-5.38-0.67-8.26,1.64l0.54-3.97c-2.52,5.03-2.63,6.42-5.99,7.74
		c-0.77-0.54-0.61-3.21,0.41-2.16c-2.57-2.16-2.15,3.72-5.28,1.51l1.25-2.51c-2.69-0.38-2.52,0.99-4.08,3.92
		c-1.74,1.55-5.1-1.14-5.4-4.76c-0.42,2.19-1.98,5.09-3.55,4c-0.18-1.37,0.42-2.2,0.73-2.6c-4.45-2.83-6.84,4.45-9.85,0.46
		c-0.03-1.32-0.21-1.99-0.46-2.39c3.59,0.19,6.47,0.49,6.19,0.77c0.1-3.67-2.79-4.4-0.34-9.41c-2.4,2.71-6.54,8.62-9.32,6.82
		c-0.13-0.36-0.25-0.71-0.34-1.28l0.3-0.4c-0.64-0.38-1.24-0.06-1.8,0.55c-0.89-0.63-1.45-1.09-2.31-1.17
		c-0.25-3.05-3.28-1.73-4.72-1.91c0.01,4.02-1.86,3.33-0.18,6.69c-0.22-0.3,0.29-0.47,1.25-0.62c0.22-0.11,0.48-0.17,0.63-0.4
		c-0.03,0.1-0.07,0.23-0.11,0.35c0.95-0.09,2.19-0.15,3.6-0.17c-1.2,2.01-2.44,3.7-3.98,1.42c-0.81,2.56-1.7,5.2-2.19,6.43
		c-1.83-5.66-5.56-8.79-6-12.26c-4.47,2.14-10.44,1.21-13.42,8.69c-1.28,0.94-1.39-2.2-1.82-3.4c0.74-0.74,1.6-0.6,2.02-1.67
		c-2.56,1.87-7.46,0.56-8.19,5.82c-3.1-2.46,1.91-4.81-2.46-4.06l0.63-1.6c-8.33-8.66-14.26,13.1-23.45,2.02
		c0.64,0.68,0.96,1,1.07,1.88c-10.68-5.06-22.39,3.89-32.86-3.96c-2.99-1.61-3.41,1.75-5.33,4.27l-0.54-4.34l-3.3,4.9
		c-4.58,3.53-7.49-10.8-13.35-4.05l0.66,2.93c-2.03-0.6-6.51,1.54-6.08-1.79c-0.22,0.53-0.75,3.01-1.51,1.47l0-2.26l-5.11,3.74
		c-3.84-1.74,0.85-8.95-4.81-9.54c-2.13,0.81-6.17,6.42-5.42,7.95c0.85,0.13,2.14,1.47,2.14,3.73l-1.96,1.13
		c-0.53,6.65-2.19,13.43,2.42,18.2l3.4-3.98l0.98,3.26l-2.78,0.13c1.49,3.08,2.56,0.42,3.73-1.4c0.22,1.72,0.65,2.94,1.29,3.59
		l3.4-6.27c0.32,2.61-1.59,5.13,0.55,6.62c1.59-2.91-1.3-5.88,1.26-7.75c1.5,3.06,0.97,5.52,2.89,2.98c0.21,1.72-0.21,2.8-0.96,3.54
		c1.7-2.01,4.38-0.75,5.33-4.27c1.54,3.78,5.59-0.82,5.26,5.47c0.56-1.49,3.03-4.87,4.55-5.09c-2.96,7.47,5.65,0.59,4.71,8.66
		c2.23-6.73,7.47-2.82,11.19-6.48c-0.22,0.53-0.64,1.61-0.95,1.26c2.02,0.62,2.56,2.68,3.84,3.99c0.41-5.6,3.62-6.79,5.43-10.2
		c2.36,5.47-1.69,6.54-1.05,11.75c-0.01-4.55,4.46-4.42,3.71-8.22c1.82,3.4,1.6,1.67,2.47,6.34c0.52-7,1.81-1.14,3.51-5.4
		c2.68,3.53,0.54,6.58,3.63,4.53C170.2,496.31,167.43,498.72,167.43,498.72z M240.05,488.52c0,0.04,0,0.08,0,0.08
		c-0.63,0.08-1.16,0.15-1.5,0.19C238.86,488.74,239.29,488.66,240.05,488.52z M246.13,488.62c-0.74-0.18-1.66-0.23-2.63-0.23
		c-0.18-1.39,0.09-2.82,0.7-2.73C243.84,486.59,245.25,487.43,246.13,488.62z M234.01,460.43c0.98-0.54,1.28,0.25,1.39,1.08
		c-0.46,0.06-0.99,0.18-1.69,0.44c-0.04,0.14-0.09,0.34-0.13,0.49C233.69,461.67,233.82,460.95,234.01,460.43z"/>
	<path class="st0" d="M232.15,465.65c-0.14,0.09-0.22,0.25-0.4,0.28c0.19,0.36,0.37,0.67,0.55,0.92c0.13-0.43,0.26-0.86,0.37-1.25
		C232.49,465.62,232.31,465.64,232.15,465.65z"/>
	<path class="st0" d="M781.38,472.89l-0.13-0.08c0.12,0.15,0.23,0.3,0.31,0.55C781.46,473.17,781.45,473.05,781.38,472.89z"/>
	<polygon class="st0" points="329.81,498.54 329.83,497.52 329.28,498.4 	"/>
	<path class="st0" d="M815.85,483.63c0.09,0.35,0.25,0.7,0.52,0.99C816.33,484.36,816.11,484.02,815.85,483.63z"/>
	<path class="st0" d="M830.09,483.57l2.06,1.32C831.26,484.13,830.61,483.78,830.09,483.57z"/>
	<path class="st0" d="M840.93,485.18c0.12-0.71,0.15-1.24,0.18-1.73l-0.02-0.02L840.93,485.18z"/>
	<path class="st0" d="M664.56,490c-0.14,0.02-0.27,0.08-0.4,0.18C663.24,490.96,663.87,490.65,664.56,490z"/>
	<path class="st0" d="M716.29,484.54c-0.63,0.67-1.26,1.33-1.89,1.72C715.3,486.66,716.03,486.81,716.29,484.54z"/>
	<path class="st0" d="M608.45,499.95c0-0.03,0-0.03,0-0.07c-0.13,0.03-0.24,0.03-0.37,0.04L608.45,499.95z"/>
	<path class="st0" d="M711.96,485.93c0.85,0.9,1.65,0.81,2.44,0.33C713.66,485.91,712.79,485.4,711.96,485.93z"/>
	<path class="st0" d="M885.11,491.74l0.42,0.28c0.06-0.26,0.15-0.46,0.23-0.61L885.11,491.74z"/>
	<path class="st0" d="M885.77,491.42l0.65-0.32C886.18,491.04,885.96,491.01,885.77,491.42z"/>
	<path class="st0" d="M887.8,490.42l-1.39,0.68C886.79,491.21,887.22,491.45,887.8,490.42z"/>
	<path class="st0" d="M872.42,487.04l-0.38,1.41C872.16,488.17,872.29,487.71,872.42,487.04z"/>
	<path class="st0" d="M868.24,486.91c0.95,0.47,2.03,3.34,3.49,2.67l0.31-1.12C871.12,490.43,869.52,484.61,868.24,486.91z"/>
	<path class="st0" d="M851.25,467.58c1.28,0.43,2.54,0.77,3.82,1.27c-0.6-1.59-1.44-3.74,0.37-4
		C850.66,460.03,856.3,468.31,851.25,467.58z"/>
	<path class="st0" d="M839.26,465.32c2.07-0.77-0.07-2.25,0.02-3.13C837.98,463.64,837.68,464,839.26,465.32z"/>
	<path class="st0" d="M755.5,471.2l0.11-3.66C754.13,468.11,755.63,468.95,755.5,471.2z"/>
	<polygon class="st0" points="739.26,489.99 740.75,492.32 741.61,488.99 	"/>
	<polygon class="st0" points="731.41,463.42 732.09,462.94 729.52,464.08 	"/>
	<path class="st0" d="M588.31,466.64l0.9,4.44C590.15,470.18,589.86,465.12,588.31,466.64z"/>
	<path class="st0" d="M528.88,474.15c-0.68-2.25-2.38-3.68-3.4-1.45C526.83,472.99,528.2,474.74,528.88,474.15z"/>
	<polygon class="st0" points="346.91,462.84 348.18,461.37 345.84,462.56 	"/>
</g>
</svg>
