<svg xmlns="http://www.w3.org/2000/svg" width="111" height="111" viewBox="0 0 111 111"><defs><style>.a{fill:#0d1e3d;}.b,.d{fill:none;}.b{stroke:#0d1e3d;stroke-width:5px;}.c{stroke:none;}</style></defs><g transform="translate(-1525 -3309)"><g transform="translate(1545.33 3331.551)"><g transform="translate(0 0)"><path class="a" d="M81.272,33.533A6.194,6.194,0,0,0,77.907,29a6.467,6.467,0,0,0-4.918,0A7.076,7.076,0,0,0,69.3,32.563L62.507,35.6a23.683,23.683,0,0,0-6.341-8.347l2.782-4.012a5.3,5.3,0,0,0,3.171-2.2A4.872,4.872,0,0,0,62.96,17.1a5.306,5.306,0,0,0-7.571-3.235,5.087,5.087,0,0,0-2.2,3.235,5.6,5.6,0,0,0,.582,3.818l-.712,4.141A23.361,23.361,0,0,0,40.7,21.562h-.453l.388-2.265a4.629,4.629,0,0,0,1.553-2.782,4.337,4.337,0,0,0-.777-3.365A4.326,4.326,0,0,0,37.788,11.6a4.129,4.129,0,0,0-3.365,1.812,4.43,4.43,0,0,0-.518,3.3,4.937,4.937,0,0,0,1.747,2.653l.712,2.524A24.186,24.186,0,0,0,26.27,26.351L24.2,22.533a5.614,5.614,0,0,0-.582-4.077,5.055,5.055,0,0,0-3.3-2.588A5.474,5.474,0,0,0,15.658,17.1a5.362,5.362,0,0,0-1.877,4.335,5.157,5.157,0,0,0,2.006,3.559,6.108,6.108,0,0,0,3.947,1.229l3.688,2.718A23.861,23.861,0,0,0,17.6,39.487l-2.782-1.294A5.357,5.357,0,0,0,12.423,35.8,4.437,4.437,0,0,0,8.8,35.669,4.6,4.6,0,0,0,6.211,38.9a4.494,4.494,0,0,0,.906,3.947,4.206,4.206,0,0,0,3.235,1.424h.129a5.418,5.418,0,0,0,3.106-1.035h3.43c-.065.712-.129,1.424-.129,2.135A23.676,23.676,0,0,0,20.964,58.7l-6.406,1.877a7.013,7.013,0,0,0-5.241-.324A6.09,6.09,0,0,0,5.5,63.429a6.287,6.287,0,0,0,.324,5.759,6.617,6.617,0,0,0,4.788,3.43c.194,0,.453.065.647.065A6.326,6.326,0,0,0,15.464,71a7.5,7.5,0,0,0,2.459-4.659l5.371-4.659a23.744,23.744,0,0,0,12.23,6.988l-.841,2.847a4.927,4.927,0,0,0-1.812,2.459,4.048,4.048,0,0,0,3.688,5.306h.324a4.345,4.345,0,0,0,3.171-1.359,3.921,3.921,0,0,0,.841-3.171,4.748,4.748,0,0,0-1.359-2.718l-.388-2.847a12.468,12.468,0,0,0,1.553.065,23.46,23.46,0,0,0,11-2.718l2.588,4.788a6.3,6.3,0,0,0,.647,4.594,5.769,5.769,0,0,0,3.624,2.912,7.13,7.13,0,0,0,1.165.129,5.985,5.985,0,0,0,3.947-1.553,5.385,5.385,0,0,0-.194-8.671,6.786,6.786,0,0,0-4.465-1.359L55,64.4a23.675,23.675,0,0,0,7.377-9.318l2.459,1.165a4.473,4.473,0,0,0,2.006,1.941,4.271,4.271,0,0,0,1.747.388,3.482,3.482,0,0,0,1.424-.259A4.059,4.059,0,0,0,71.5,52.1a3.618,3.618,0,0,0-2.782-1.229,4.322,4.322,0,0,0-2.653.841h-2.33a24.9,24.9,0,0,0,.841-6.277,23.683,23.683,0,0,0-.906-6.471l6.665.129a6.922,6.922,0,0,0,4.788,1.941h.129a6.45,6.45,0,0,0,4.594-1.877A6.611,6.611,0,0,0,81.272,33.533ZM56.424,17.745a1.522,1.522,0,0,1,.712-1.1,1.3,1.3,0,0,1,.712-.194,1.993,1.993,0,0,1,.841.194,2.05,2.05,0,0,1,1.165,1.165,1.85,1.85,0,0,1-.324,1.359,2.373,2.373,0,0,1-1.682.971,2.465,2.465,0,0,0-.647.194,2.318,2.318,0,0,0-.259-.712A2.231,2.231,0,0,1,56.424,17.745ZM37.141,15.286a1.283,1.283,0,0,1,.841-.388h.065a1.021,1.021,0,0,1,.841.324,1,1,0,0,1,.129.776,1.577,1.577,0,0,1-.712,1.035c-.065.065-.129.065-.194.129-.065-.065-.194-.129-.259-.194A1.843,1.843,0,0,1,37.076,16,.859.859,0,0,1,37.141,15.286ZM20.9,22.274a1.863,1.863,0,0,0-.065.841,2.3,2.3,0,0,0-.647-.129h-.259a2.745,2.745,0,0,1-2.135-.518,1.972,1.972,0,0,1-.776-1.294,2.33,2.33,0,0,1,2.524-2.2,2.325,2.325,0,0,1,1.229,1.035A3.075,3.075,0,0,1,20.9,22.274ZM11.776,40.522a1.973,1.973,0,0,1-1.359.582,1.118,1.118,0,0,1-.841-.324,1.482,1.482,0,0,1-.194-1.1,1.61,1.61,0,0,1,.647-.971.821.821,0,0,1,.388-.065,2.848,2.848,0,0,1,.647.129,2.081,2.081,0,0,1,.971,1.1c.065.129.065.194.129.324C11.97,40.328,11.84,40.392,11.776,40.522ZM15.27,64.4a1.573,1.573,0,0,0-.582,1.165,4.166,4.166,0,0,1-1.359,3.041,3.22,3.22,0,0,1-2.394.841A3.283,3.283,0,0,1,8.6,67.7a3.1,3.1,0,0,1-.259-2.782,2.984,2.984,0,0,1,1.877-1.488,3.664,3.664,0,0,1,1.165-.194,4.425,4.425,0,0,1,2.135.582,1.643,1.643,0,0,0,1.229.129l1.488-.453ZM37.594,75.853a.945.945,0,0,1-.777.259,1.009,1.009,0,0,1-.776-.388.89.89,0,0,1-.065-.712,1.561,1.561,0,0,1,.776-.906c.065,0,.129-.065.194-.065l.194.194a1.779,1.779,0,0,1,.647.971A.966.966,0,0,1,37.594,75.853Zm20.124-5.435a1.622,1.622,0,0,0,1.229.324,3.441,3.441,0,0,1,2.653.647,2.192,2.192,0,0,1,.971,1.618,2.615,2.615,0,0,1-.971,2.071,2.882,2.882,0,0,1-2.265.712,2.7,2.7,0,0,1-1.553-1.294,3.322,3.322,0,0,1-.194-2.718,1.509,1.509,0,0,0-.129-1.294l-.129-.194ZM67.813,54.5a1.193,1.193,0,0,1,.841-.388.476.476,0,0,1,.518.712.8.8,0,0,1-.324.518c-.065.065-.259.065-.518-.065a.97.97,0,0,1-.582-.712V54.5C67.748,54.564,67.813,54.5,67.813,54.5ZM40.7,66.082A20.642,20.642,0,1,1,61.342,45.44,20.657,20.657,0,0,1,40.7,66.082ZM77.454,36.963a2.758,2.758,0,0,1-2.265.841,3.889,3.889,0,0,1-2.912-1.359,1.713,1.713,0,0,0-1.229-.582H69.883l1.229-.582a1.643,1.643,0,0,0,.841-.906,3.747,3.747,0,0,1,2.2-2.329,2.93,2.93,0,0,1,2.329-.065,2.889,2.889,0,0,1,1.553,2.265A3.056,3.056,0,0,1,77.454,36.963Z" transform="translate(-4.947 -11.592)"/><path class="a" d="M42.188,61A3.687,3.687,0,0,0,38.5,64.688,3.688,3.688,0,1,0,42.188,61Zm0,4.077a.453.453,0,1,1,.453-.453A.442.442,0,0,1,42.188,65.077Z" transform="translate(-16.788 -29.029)"/><path class="a" d="M70.024,62.6a5.824,5.824,0,1,0,5.824,5.824A5.8,5.8,0,0,0,70.024,62.6Zm0,8.412a2.588,2.588,0,1,1,2.588-2.588A2.6,2.6,0,0,1,70.024,71.012Z" transform="translate(-25.858 -29.594)"/><path class="a" d="M67.406,43.453a4.853,4.853,0,1,0-4.853,4.853A4.888,4.888,0,0,0,67.406,43.453Zm-6.471,0a1.618,1.618,0,1,1,1.618,1.618A1.6,1.6,0,0,1,60.935,43.453Z" transform="translate(-23.564 -21.124)"/></g></g><line class="b" x1="75.655" y1="75.655" transform="translate(1543.55 3327.55)"/><g class="b" transform="translate(1525 3309)"><circle class="c" cx="55.5" cy="55.5" r="55.5"/><circle class="d" cx="55.5" cy="55.5" r="53"/></g></g></svg>