<svg xmlns="http://www.w3.org/2000/svg" width="46.628" height="46.628" viewBox="0 0 46.628 46.628"><defs><style>.a,.b{fill:none;stroke:#5c4efe;stroke-linecap:round;stroke-miterlimit:10;stroke-width:2px;}.b{stroke-linejoin:round;}</style></defs><g transform="translate(-12.34 -11.932)"><path class="a" d="M13.979,56.778a1.617,1.617,0,0,0,1.325.467s8.9.051,13.962-4.8c.064-.056.124-.116.184-.176a4.694,4.694,0,0,0-6.638-6.638l-8.833,8.833A1.638,1.638,0,0,0,13.979,56.778Z"/><line class="a" x1="0.01" y1="0.01" transform="translate(17.226 57.129)"/><path class="a" d="M22.146,53.019A4.011,4.011,0,0,1,20.837,56a5.191,5.191,0,0,1-.9.76"/><path class="a" d="M17.966,55.659a2.392,2.392,0,0,1-.8,1.49"/><path class="b" d="M41.055,53.358,22.442,34.745a1,1,0,0,1,0-1.414L33.685,22.088a1,1,0,0,1,1.414,0L53.712,40.7a1,1,0,0,1,0,1.414L42.469,53.358A1,1,0,0,1,41.055,53.358Z"/><path class="b" d="M47.425,35.192,35.692,46.925a.545.545,0,0,1-.139.1.574.574,0,0,1-.65-.121L28.68,40.68a.573.573,0,0,1-.121-.65.547.547,0,0,1,.1-.139L40.391,28.158a.547.547,0,0,1,.139-.1.574.574,0,0,1,.65.121L47.4,34.4a.573.573,0,0,1,.121.65A.545.545,0,0,1,47.425,35.192Z"/><path class="a" d="M57.186,13.571a1.617,1.617,0,0,1,.467,1.325s.051,8.9-4.8,13.961c-.056.064-.116.124-.176.184A4.694,4.694,0,0,1,46.037,22.4l8.833-8.833A1.638,1.638,0,0,1,57.186,13.571Z"/><line class="a" x1="0.01" y1="0.01" transform="translate(57.537 16.819)"/><path class="a" d="M53.427,21.739a4.011,4.011,0,0,0,2.98-1.31,5.191,5.191,0,0,0,.76-.9"/><path class="a" d="M56.067,17.559a2.392,2.392,0,0,0,1.49-.8"/></g></svg>