<svg xmlns="http://www.w3.org/2000/svg" width="52.192" height="50.208" viewBox="0 0 52.192 50.208"><defs><style>.a,.b{fill:none;}.a,.b,.c{stroke:#5c4efe;stroke-miterlimit:10;stroke-width:2px;}.b{stroke-linecap:round;stroke-linejoin:round;}.c{fill:#5c4efe;}</style></defs><g transform="translate(-11 -11)"><circle class="a" cx="3" cy="3" r="3" transform="translate(18 14)"/><path class="b" d="M15,30s1-4.311,3-5.311a6.375,6.375,0,0,1,6,0c2,1,3,5.311,3,5.311"/><circle class="c" cx="3" cy="3" r="3" transform="translate(52.992 23.324)"/><path class="b" d="M49.992,39.324s1-4.311,3-5.311a6.375,6.375,0,0,1,6,0c2,1,3,5.311,3,5.311"/><circle class="a" cx="3" cy="3" r="3" transform="translate(26.993 44.008)"/><path class="b" d="M23.993,60.008s1-4.311,3-5.311a6.375,6.375,0,0,1,6,0c2,1,3,5.311,3,5.311"/><path class="b" d="M52.552,20.136a23.03,23.03,0,0,0-25.435-6.749"/><path class="b" d="M39.433,57.573a23.037,23.037,0,0,0,17.427-15.4"/><path class="b" d="M12.087,32.988Q12,33.983,12,35A22.978,22.978,0,0,0,22.222,54.127"/></g></svg>