<svg xmlns="http://www.w3.org/2000/svg" width="142" height="141.447" viewBox="0 0 142 141.447"><defs><style>.a{fill:#0b1e43;}</style></defs><g transform="translate(-250.294 -952.763)"><path class="a" d="M321.269,952.763a70.724,70.724,0,1,0,71.025,70.724A70.887,70.887,0,0,0,321.269,952.763Zm0,6.187a64.537,64.537,0,1,1-64.284,64.537A64.324,64.324,0,0,1,321.269,958.95Zm-.05,5.131a3.219,3.219,0,0,0-3.169,3.269h0v10.714a3.22,3.22,0,1,0,6.439.091c0-.03,0-.061,0-.091V967.351a3.219,3.219,0,0,0-3.169-3.27Zm-28.47,7.545a3.22,3.22,0,0,0-2.314,4.879l1.911,3.32a3.223,3.223,0,1,0,5.584-3.219l-1.911-3.32A3.219,3.219,0,0,0,292.748,971.626Zm56.287,0a3.219,3.219,0,0,0-2.515,1.66l-1.911,3.32a3.223,3.223,0,1,0,5.584,3.219l1.911-3.32a3.22,3.22,0,0,0-3.069-4.879Zm-28.118,16.147a3.219,3.219,0,0,0-2.867,3.219v36.921a3.22,3.22,0,0,0,1.157,2.465l19.819,16.347a3.219,3.219,0,1,0,4.27-4.819c-.063-.056-.128-.109-.2-.16L324.488,1026.4V990.992a3.219,3.219,0,0,0-3.2-3.238A3.131,3.131,0,0,0,320.917,987.773Zm-48.44,4.376a3.219,3.219,0,0,0-1.408,6.036l3.32,1.962a3.223,3.223,0,0,0,3.22-5.584l-3.32-1.961a3.213,3.213,0,0,0-1.509-.453C272.678,992.144,272.578,992.144,272.477,992.149Zm97.534,0a3.219,3.219,0,0,0-1.761.453l-3.32,1.961a3.223,3.223,0,0,0,3.22,5.584l3.32-1.962a3.22,3.22,0,0,0-1.459-6.036Zm-105.179,28.118a3.224,3.224,0,1,0,.35,6.438h10.666a3.22,3.22,0,0,0,.091-6.438H265.183A3.142,3.142,0,0,0,264.831,1020.267Zm101.508,0a3.224,3.224,0,1,0,.35,6.438H377.4a3.22,3.22,0,1,0,.091-6.438H366.691A3.13,3.13,0,0,0,366.339,1020.267Zm-90.793,26.106a3.207,3.207,0,0,0-1.157.453l-3.32,1.911a3.223,3.223,0,0,0,3.219,5.584l3.32-1.962a3.219,3.219,0,0,0-2.062-5.985Zm90.391,0a3.219,3.219,0,0,0-1.006,5.985l3.32,1.962a3.223,3.223,0,0,0,3.22-5.584l-3.32-1.911A3.22,3.22,0,0,0,365.937,1046.374Zm-70.724,19.064a3.22,3.22,0,0,0-2.867,1.66l-1.911,3.37a3.223,3.223,0,0,0,5.584,3.219h0l1.911-3.37a3.219,3.219,0,0,0-2.716-4.879Zm52.011,0a3.219,3.219,0,0,0-2.616,4.879l1.911,3.37a3.223,3.223,0,0,0,5.584-3.219h0l-1.911-3.37A3.22,3.22,0,0,0,347.224,1065.438Zm-26.006.151a3.22,3.22,0,0,0-3.169,3.27h0v10.714a3.22,3.22,0,0,0,6.439.091c0-.031,0-.061,0-.091v-10.714a3.22,3.22,0,0,0-3.169-3.27Z" transform="translate(0 0)"/></g></svg>
