<svg xmlns="http://www.w3.org/2000/svg" width="133.132" height="131.685" viewBox="0 0 133.132 131.685"><defs><style>.a{fill:#0d1e3d;}</style></defs><g transform="translate(-0.8 -1.1)"><path class="a" d="M57.21,55.564h0L57,47.915a12.613,12.613,0,0,1,5.788,2.274l2.687-3.721A16.331,16.331,0,0,0,57,43.367V41.3H54.316v2.067c-4.961.207-8.889,3.308-8.889,8.269,0,5.168,3.514,6.822,8.889,8.269v7.649a15.076,15.076,0,0,1-7.029-3.514L44.6,67.554A16.644,16.644,0,0,0,54.523,71.9V74.79H57.21V71.9c5.168-.207,9.1-3.1,9.1-8.269S62.378,56.8,57.21,55.564Zm-2.687-.827C52.249,53.91,50.6,53.29,50.6,51.016c0-2.067,1.861-3.1,3.928-3.308ZM57,67.761V60.526c2.481.827,4.135,1.447,4.135,3.721C61.345,66.521,59.278,67.554,57,67.761Z" transform="translate(46.746 42.904)"/><path class="a" d="M54.127,45.942a1.953,1.953,0,0,0-2.067-2.067H32.835V19.067a2.067,2.067,0,0,0-4.135,0V45.942a1.953,1.953,0,0,0,2.067,2.067H52.06A2.072,2.072,0,0,0,54.127,45.942Z" transform="translate(29.777 16.969)"/><path class="a" d="M118.841,74.074a56.431,56.431,0,0,0,1.447-13.23A59.906,59.906,0,0,0,60.544,1.1C27.674,1.307.8,27.974.8,60.844a59.906,59.906,0,0,0,59.744,59.744,52.185,52.185,0,0,0,15.091-2.067A32.24,32.24,0,0,0,102.1,132.785a31.706,31.706,0,0,0,16.745-58.71Zm-58.3,42.379a55.609,55.609,0,1,1,55.609-55.609,51.32,51.32,0,0,1-1.24,11.163,28.4,28.4,0,0,0-7.442-2.274,43.138,43.138,0,0,0,.827-8.889A47.774,47.774,0,0,0,60.544,13.09h0a47.857,47.857,0,1,0-.207,95.714h0a45.893,45.893,0,0,0,10.543-1.24,42.65,42.65,0,0,0,2.481,7.235A51.829,51.829,0,0,1,60.544,116.453Zm9.923-15.3a7.751,7.751,0,0,0,.207,2.274,32.719,32.719,0,0,1-7.856,1.034v-6.2a2.067,2.067,0,1,0-4.135,0v6.2A42.137,42.137,0,0,1,31.4,93.093l4.341-4.341a2.046,2.046,0,0,0-2.894-2.894L28.5,90.2A40.912,40.912,0,0,1,16.925,62.911h6.2a2.067,2.067,0,0,0,0-4.135h-6.2a42.58,42.58,0,0,1,11.37-27.288l4.341,4.341a2.046,2.046,0,0,0,2.894-2.894l-4.341-4.341a44.867,44.867,0,0,1,27.288-11.37v6.2a2.067,2.067,0,0,0,4.135,0v-6.2A42.137,42.137,0,0,1,89.9,28.595l-4.341,4.341a2.046,2.046,0,0,0,2.894,2.894l4.341-4.341a43.691,43.691,0,0,1,11.37,27.288h-6.2a2.067,2.067,0,0,0,0,4.135h6.2a34.017,34.017,0,0,1-.827,6.409H102.1A31.806,31.806,0,0,0,70.467,101.155ZM102.1,128.65a27.7,27.7,0,1,1,27.7-27.7A27.7,27.7,0,0,1,102.1,128.65Z" transform="translate(0)"/></g></svg>