<svg xmlns="http://www.w3.org/2000/svg" width="122.258" height="122" viewBox="0 0 122.258 122"><defs><style>.a{fill:#0d1e3d;}</style></defs><g transform="translate(-25.124 -4097)"><path class="a" d="M86.6,74.676a11.8,11.8,0,1,0,11.8,11.8A11.813,11.813,0,0,0,86.6,74.676Zm0,20.549a8.749,8.749,0,1,1,8.749-8.749A8.759,8.759,0,0,1,86.6,95.225Z" transform="translate(48.977 4120.48)"/><path class="a" d="M53.195,36.172A8.269,8.269,0,1,0,44.926,27.9,8.278,8.278,0,0,0,53.195,36.172Zm0-13.488a5.219,5.219,0,1,1-5.218,5.22A5.224,5.224,0,0,1,53.195,22.684Z" transform="translate(33.282 4091.566)"/><path class="a" d="M32.6,53.914a8.269,8.269,0,1,0-8.269,8.269A8.28,8.28,0,0,0,32.6,53.914Zm-13.487,0a5.218,5.218,0,1,1,5.218,5.218A5.225,5.225,0,0,1,19.113,53.914Z" transform="translate(18.119 4105.23)"/><path class="a" d="M53.768,82.26a8.269,8.269,0,1,0,8.269-8.269A8.28,8.28,0,0,0,53.768,82.26Zm13.488,0a5.218,5.218,0,1,1-5.218-5.218A5.225,5.225,0,0,1,67.256,82.26Z" transform="translate(37.927 4120.121)"/><path class="a" d="M74.8,55.356a8.269,8.269,0,1,0,8.269-8.27A8.278,8.278,0,0,0,74.8,55.356Zm13.487,0a5.218,5.218,0,1,1-5.218-5.22A5.224,5.224,0,0,1,88.292,55.356Z" transform="translate(48.977 4105.987)"/><path class="a" d="M10.126,113.387a18.938,18.938,0,1,0,33.464-12.131l11.931-12.4A24.065,24.065,0,0,0,90.3,55.841l11.237-11.7A19.074,19.074,0,1,0,99.3,42.07l-11.052,11.5a24.013,24.013,0,0,0-33.58.027L43,42.038a18.913,18.913,0,1,0-2.233,2.081L52.627,55.867a23.971,23.971,0,0,0,.74,30.823l-11.925,12.4a18.91,18.91,0,0,0-31.316,14.3ZM113.212,13.375A15.887,15.887,0,1,1,97.324,29.261,15.905,15.905,0,0,1,113.212,13.375ZM13.176,29.261A15.888,15.888,0,1,1,29.064,45.148,15.9,15.9,0,0,1,13.176,29.261Zm58.3,20.532A21.049,21.049,0,1,1,50.427,70.842,21.073,21.073,0,0,1,71.476,49.793ZM29.064,97.5a15.887,15.887,0,1,1-15.888,15.888A15.906,15.906,0,0,1,29.064,97.5Z" transform="translate(15 4086.676)"/></g></svg>