<svg xmlns="http://www.w3.org/2000/svg" width="1388" height="451" viewBox="0 0 1388 451"><defs><style>.a{fill:#0d1e3d;font-size:30px;font-family:Lato-Regular, Lato;}.b{fill:#0b1e43;}.c{fill:#0b1e42;}</style></defs><g transform="translate(-57 -1571)"><text class="a" transform="translate(221 1816)"><tspan x="-68.715" y="0">ORGANIC</tspan><tspan x="0" y="40"></tspan><tspan x="-120.48" y="80">Organic and 100%</tspan><tspan x="-163.68" y="120" xml:space="preserve"> alcohol free disinfectant </tspan><tspan x="-119.28" y="160">suitable for hands </tspan><tspan x="-82.155" y="200">and surfaces</tspan></text><g transform="translate(-117.29 314.638)"><path class="b" d="M426.906,1408.576a54.868,54.868,0,0,0-51.753-54.715v-11.134l9.471-11.051a36.557,36.557,0,0,0,8.8-23.773v-15.012a36.573,36.573,0,0,0-36.532-36.531h-9.133a36.572,36.572,0,0,0-36.531,36.531v5.02L299.712,1312.3a3.045,3.045,0,0,0,1.014,4.625l10.5,5.248v10.3a12.189,12.189,0,0,0,12.177,12.177h3.044v9.133a54.86,54.86,0,0,0-54.8,54.8v30.443h6.089v-30.443a48.765,48.765,0,0,1,48.709-48.708h3.044a3.046,3.046,0,0,0,3.045-3.045V1341.6a3.045,3.045,0,0,0-3.045-3.044H323.4a6.1,6.1,0,0,1-6.089-6.089v-12.177a3.048,3.048,0,0,0-1.683-2.725l-8.81-4.4,9.824-12.281a3.02,3.02,0,0,0,.67-1.9v-6.089a30.477,30.477,0,0,1,30.443-30.443h9.133a30.478,30.478,0,0,1,30.443,30.443v15.012A30.478,30.478,0,0,1,380,1327.717l-10.2,11.906a3.021,3.021,0,0,0-.734,1.979v15.221a3.046,3.046,0,0,0,3.044,3.045,48.765,48.765,0,0,1,48.709,48.708v30.443h6.089Z" transform="translate(-6.958)"/><path class="b" d="M347.317,1298.354h-.006a2.851,2.851,0,0,0-2.56,1.416,3.043,3.043,0,0,1-5.389,0,2.859,2.859,0,0,0-2.563-1.416h-.006a3.035,3.035,0,0,0-2.731,4.417,9.131,9.131,0,0,0,15.985,0A3.034,3.034,0,0,0,347.317,1298.354Z" transform="translate(-19.526 -8.505)"/><path class="b" d="M335.468,1392.957a12.1,12.1,0,0,0-9.565-1.12,31.856,31.856,0,0,0-22.561,24.372l-4.66,23.407a10.618,10.618,0,0,0,2.183,9.072,10.009,10.009,0,0,0,7.565,3.474,10.142,10.142,0,0,0,2.679-.362l22.482-6.156a10.082,10.082,0,0,0,7.416-9.72V1415.96l15.221-11.708,15.222,11.708v19.965a10.075,10.075,0,0,0,7.416,9.717l22.482,6.156a9.986,9.986,0,0,0,10.247-3.108,10.621,10.621,0,0,0,2.183-9.072l-4.66-23.407a31.851,31.851,0,0,0-22.561-24.372,12.1,12.1,0,0,0-9.566,1.12,11.517,11.517,0,0,0-5.54,9.879v5.443l-12.177-9.367v-68.52a9.132,9.132,0,0,0-9.133-9.133H325.785a3.045,3.045,0,0,0-3.044,3.045h0a3.045,3.045,0,0,0,3.044,3.044h24.355a3.045,3.045,0,0,1,3.044,3.045v9.133h-21.31a3.045,3.045,0,0,0-3.044,3.044h0a3.046,3.046,0,0,0,3.044,3.045h21.31v53.3l-12.177,9.367v-5.443A11.52,11.52,0,0,0,335.468,1392.957Zm-.551,20-7.263,5.586-1.33-6.621a3.041,3.041,0,0,0-3.583-2.384h0a3.048,3.048,0,0,0-2.387,3.583l1.921,9.559-5.066,3.9a3.046,3.046,0,0,0-.557,4.271h0a3.044,3.044,0,0,0,4.268.557l14-10.767V1435.9a4.015,4.015,0,0,1-2.952,3.872l-22.464,6.152a3.887,3.887,0,0,1-3.745-.926,3.949,3.949,0,0,1-1.2-3.729l4.755-23.873a25.725,25.725,0,0,1,18.859-19.867,5.355,5.355,0,0,1,4.64.983,5.432,5.432,0,0,1,2.106,4.32Zm42.62,7.68,14,10.767a3.042,3.042,0,0,0,4.268-.557h0a3.04,3.04,0,0,0-.557-4.268l-4.952-3.812,1.632-6.493a3.043,3.043,0,0,0-2.211-3.693h0a3.038,3.038,0,0,0-3.692,2.211l-.986,3.93-7.5-5.766v-10.126a5.437,5.437,0,0,1,2.1-4.32,5.369,5.369,0,0,1,3.316-1.151,5.515,5.515,0,0,1,1.327.164,25.728,25.728,0,0,1,18.859,19.867l4.755,23.873a3.942,3.942,0,0,1-1.2,3.729,3.881,3.881,0,0,1-3.745.926l-22.464-6.153a4.009,4.009,0,0,1-2.953-3.869Z" transform="translate(-12.387 -13.143)"/><path class="b" d="M247.2,1358.66h0a3.046,3.046,0,0,0-3.045-3.045h0a3.045,3.045,0,0,0-3.044,3.045h0a3.045,3.045,0,0,0,3.044,3.044h0A3.046,3.046,0,0,0,247.2,1358.66Z" transform="translate(-0.773 -20.102)"/><path class="b" d="M240.335,1378.52h0a3.046,3.046,0,0,0-3.045,3.044h0a3.046,3.046,0,0,0,3.045,3.045h0a3.046,3.046,0,0,0,3.044-3.045h0A3.045,3.045,0,0,0,240.335,1378.52Z" transform="translate(0 -24.74)"/><path class="b" d="M270.874,1370.885h0a3.045,3.045,0,0,0-3.044,3.044h0a3.046,3.046,0,0,0,3.044,3.045h0a3.047,3.047,0,0,0,3.045-3.045h0A3.046,3.046,0,0,0,270.874,1370.885Z" transform="translate(-6.185 -23.194)"/><path class="b" d="M293.006,1358.66h0a3.045,3.045,0,0,0-3.045-3.045h0a3.045,3.045,0,0,0-3.044,3.045h0a3.045,3.045,0,0,0,3.044,3.044h0A3.045,3.045,0,0,0,293.006,1358.66Z" transform="translate(-10.051 -20.102)"/><path class="b" d="M260.2,1328.3v21.31h6.089V1328.3a3.049,3.049,0,0,1,3.044-3.045h10.917l-3.936,3.936,4.3,4.3,9.133-9.133a3.042,3.042,0,0,0,0-4.3l-9.133-9.134-4.3,4.3,3.936,3.936H269.328A9.144,9.144,0,0,0,260.2,1328.3Z" transform="translate(-4.639 -11.05)"/></g><g transform="translate(240.094 924.751)"><path class="b" d="M371.264,716.7a13.549,13.549,0,1,0-13.548-13.548A13.554,13.554,0,0,0,371.264,716.7Zm0-21.678a8.13,8.13,0,1,1-8.129,8.13A8.118,8.118,0,0,1,371.264,695.024Z" transform="translate(-19.987 -8.692)"/><path class="b" d="M311.65,722.122A13.549,13.549,0,1,0,298.1,708.573,13.554,13.554,0,0,0,311.65,722.122Zm0-21.678a8.129,8.129,0,1,1-8.129,8.129A8.118,8.118,0,0,1,311.65,700.444Z" transform="translate(-9.518 -9.778)"/><path class="b" d="M319.779,735.67a8.13,8.13,0,1,0,8.129-8.129A8.118,8.118,0,0,0,319.779,735.67Zm8.129-2.709a2.71,2.71,0,1,1-2.709,2.709A2.683,2.683,0,0,1,327.908,732.961Z" transform="translate(-12.622 -15.438)"/><path class="b" d="M390.232,816.963a8.13,8.13,0,1,0,8.13-8.13A8.118,8.118,0,0,0,390.232,816.963Zm10.839,0a2.71,2.71,0,1,1-2.709-2.71A2.683,2.683,0,0,1,401.071,816.963Z" transform="translate(-24.343 -30.877)"/><path class="b" d="M311.65,797.995a8.129,8.129,0,1,0,8.129,8.129A8.118,8.118,0,0,0,311.65,797.995Zm0,10.838a2.71,2.71,0,1,1,2.71-2.709A2.683,2.683,0,0,1,311.65,808.833Z" transform="translate(-9.917 -28.818)"/><path class="b" d="M349.586,695.024a8.129,8.129,0,1,0-8.129-8.129A8.119,8.119,0,0,0,349.586,695.024Zm0-10.839a2.71,2.71,0,1,1-2.709,2.71A2.684,2.684,0,0,1,349.586,684.185Z" transform="translate(-16.228)"/><path class="b" d="M303.521,768.187a8.13,8.13,0,1,0-8.13,8.13A8.118,8.118,0,0,0,303.521,768.187Zm-8.13,2.71a2.709,2.709,0,1,1,2.71-2.71A2.683,2.683,0,0,1,295.391,770.9Z" transform="translate(-7.213 -21.614)"/><path class="b" d="M411.91,762.768a8.13,8.13,0,1,0,8.13-8.129A8.118,8.118,0,0,0,411.91,762.768Zm10.839,0a2.71,2.71,0,1,1-2.709-2.71A2.684,2.684,0,0,1,422.749,762.768Z" transform="translate(-27.949 -20.585)"/><path class="b" d="M384.813,789.865a8.129,8.129,0,1,0,8.129-8.129A8.119,8.119,0,0,0,384.813,789.865Zm8.129-2.709a2.71,2.71,0,1,1-2.71,2.709A2.683,2.683,0,0,1,392.942,787.156Z" transform="translate(-23.441 -25.731)"/><path class="b" d="M363.135,751.929a13.548,13.548,0,1,0,13.549-13.549A13.554,13.554,0,0,0,363.135,751.929Zm21.678,0a8.13,8.13,0,1,1-8.129-8.129A8.118,8.118,0,0,1,384.813,751.929Z" transform="translate(-20.938 -18.469)"/><path class="b" d="M355.006,803.414a13.548,13.548,0,1,0,13.548,13.549A13.554,13.554,0,0,0,355.006,803.414Zm0,21.678a8.129,8.129,0,1,1,8.129-8.129A8.118,8.118,0,0,1,355.006,825.092Z" transform="translate(-17.131 -31.507)"/><path class="b" d="M325.2,779.026a8.129,8.129,0,1,0,8.129-8.129A8.118,8.118,0,0,0,325.2,779.026Zm10.839,0a2.71,2.71,0,1,1-2.71-2.709A2.684,2.684,0,0,1,336.038,779.026Z" transform="translate(-13.524 -23.672)"/><path class="b" d="M414.62,743.8a8.129,8.129,0,1,0-8.129-8.13A8.118,8.118,0,0,0,414.62,743.8Zm0-10.839a2.71,2.71,0,1,1-2.71,2.709A2.683,2.683,0,0,1,414.62,732.961Z" transform="translate(-27.047 -15.438)"/><path class="b" d="M250.783,744.493a6.89,6.89,0,0,0,6.463-4.466h5.134a72.336,72.336,0,0,0,4.859,23.846l-4.768,1.921a7.26,7.26,0,0,0-2.429-1.742,7.164,7.164,0,0,0-5.271,0,6.715,6.715,0,1,0,9.443,5.849l4.721-1.92a73.981,73.981,0,0,0,13.889,20.184l-3.668,3.573a7,7,0,0,0-7.793,1.25h0a6.617,6.617,0,0,0,0,9.468,6.991,6.991,0,0,0,9.718,0,6.561,6.561,0,0,0,1.284-7.592l3.667-3.572a74.847,74.847,0,0,0,20.72,13.531l-1.972,4.6a6.914,6.914,0,0,0-6.692,4.108h0a6.656,6.656,0,0,0,3.712,8.752,6.771,6.771,0,0,0,2.614.491,6.9,6.9,0,0,0,6.372-4.153,6.526,6.526,0,0,0-1.788-7.5l1.971-4.6a75.551,75.551,0,0,0,24.478,4.734v5a6.878,6.878,0,1,0,4.584,0v-5a77.752,77.752,0,0,0,24.478-4.734l1.971,4.6a6.6,6.6,0,0,0-1.787,7.5,6.9,6.9,0,0,0,6.372,4.153,7.733,7.733,0,0,0,2.613-.491,6.656,6.656,0,0,0,3.713-8.752h0a6.915,6.915,0,0,0-6.693-4.108l-1.971-4.6a76.2,76.2,0,0,0,20.72-13.531l3.667,3.572a6.561,6.561,0,0,0,1.283,7.592,6.991,6.991,0,0,0,9.718,0,6.615,6.615,0,0,0,0-9.468h0a7,7,0,0,0-7.793-1.25l-3.667-3.573a72.665,72.665,0,0,0,13.889-20.184l4.721,1.92a6.67,6.67,0,0,0,4.217,6.52,6.827,6.827,0,0,0,2.613.536,6.691,6.691,0,0,0,2.613-12.905,7.166,7.166,0,0,0-5.272,0,6.691,6.691,0,0,0-2.429,1.742l-4.767-1.921a70.327,70.327,0,0,0,4.858-23.846h5.134a6.891,6.891,0,0,0,6.464,4.466,6.7,6.7,0,1,0,0-13.4,6.89,6.89,0,0,0-6.464,4.466H413.1a72.356,72.356,0,0,0-4.858-23.846l4.767-1.921a7.271,7.271,0,0,0,2.429,1.742,6.716,6.716,0,1,0,5.226-12.37,7.167,7.167,0,0,0-5.272,0,6.711,6.711,0,0,0-4.217,6.519l-4.721,1.921a73.97,73.97,0,0,0-13.889-20.185l3.667-3.573a6.755,6.755,0,0,0,2.933.714,7.012,7.012,0,0,0,4.859-1.964,6.617,6.617,0,0,0,0-9.468,7.005,7.005,0,0,0-9.718,0,6.56,6.56,0,0,0-1.284,7.591l-3.667,3.573a74.856,74.856,0,0,0-20.72-13.531l1.971-4.6c.137,0,.229.044.366.044a6.9,6.9,0,0,0,6.372-4.153,6.656,6.656,0,0,0-3.713-8.752,6.962,6.962,0,0,0-8.984,3.617h0a6.525,6.525,0,0,0,1.787,7.5l-1.971,4.6a75.57,75.57,0,0,0-24.478-4.733v-5.046a6.666,6.666,0,0,0-2.292-13,6.623,6.623,0,0,0-6.692,6.7,6.736,6.736,0,0,0,4.584,6.3v5a77.749,77.749,0,0,0-24.478,4.733l-1.971-4.6a6.6,6.6,0,0,0,1.787-7.5h0a6.961,6.961,0,0,0-8.984-3.617,6.656,6.656,0,0,0-3.713,8.752,6.9,6.9,0,0,0,6.372,4.153c.138,0,.229-.044.367-.044l1.971,4.6a76.209,76.209,0,0,0-20.719,13.531l-3.667-3.573a6.56,6.56,0,0,0-1.284-7.591,6.963,6.963,0,0,0-9.718,0,6.616,6.616,0,0,0,0,9.467,7.009,7.009,0,0,0,4.859,1.965,6.914,6.914,0,0,0,2.933-.714l3.668,3.572a72.633,72.633,0,0,0-13.889,20.185l-4.722-1.921a6.67,6.67,0,0,0-4.216-6.519,7.167,7.167,0,0,0-5.272,0,6.636,6.636,0,0,0,0,12.37,6.848,6.848,0,0,0,2.613.536,6.79,6.79,0,0,0,5.043-2.277l4.767,1.92a70.315,70.315,0,0,0-4.859,23.846h-5.226a6.89,6.89,0,0,0-6.463-4.465,6.723,6.723,0,1,0,0,13.442Zm7.518,27.82a2.35,2.35,0,0,1-1.742,0,2.308,2.308,0,0,1-1.237-1.206,2.191,2.191,0,0,1,1.192-2.9,2.347,2.347,0,0,1,1.742,0,2.306,2.306,0,0,1,1.238,1.206h0A2.178,2.178,0,0,1,258.3,772.313Zm48.36,44.7a2.314,2.314,0,0,1-2.98,1.206,2.213,2.213,0,0,1-1.237-2.9,2.315,2.315,0,0,1,2.98-1.206A2.213,2.213,0,0,1,306.661,817.014Zm66.651-1.7a2.2,2.2,0,0,1-1.237,2.9,2.3,2.3,0,0,1-2.98-1.206,2.2,2.2,0,0,1,1.238-2.9,2.035,2.035,0,0,1,.87-.178A2.286,2.286,0,0,1,373.312,815.317ZM417.456,768.2a2.21,2.21,0,0,1,1.742,0,2.213,2.213,0,0,1,1.238,2.9,2.307,2.307,0,0,1-1.238,1.206,2.348,2.348,0,0,1-1.742,0,2.213,2.213,0,0,1-1.237-2.9h0A2.307,2.307,0,0,1,417.456,768.2Zm0-64.93a2.348,2.348,0,0,1,1.742,0,2.306,2.306,0,0,1,1.238,1.206,2.2,2.2,0,0,1-1.238,2.9,2.348,2.348,0,0,1-1.742,0,2.306,2.306,0,0,1-1.237-1.206h0A2.235,2.235,0,0,1,417.456,703.275ZM369.094,658.53a2.315,2.315,0,0,1,2.98-1.206,2.212,2.212,0,0,1,1.237,2.9,2.313,2.313,0,0,1-2.979,1.206A2.183,2.183,0,0,1,369.094,658.53Zm-66.651,1.741a2.2,2.2,0,0,1,1.237-2.9,2.03,2.03,0,0,1,.871-.179,2.286,2.286,0,0,1,2.109,1.384,2.2,2.2,0,0,1-1.237,2.9A2.32,2.32,0,0,1,302.444,660.271ZM258.3,707.383a2.35,2.35,0,0,1-1.742,0,2.213,2.213,0,0,1-1.237-2.9,2.308,2.308,0,0,1,1.237-1.206,2.212,2.212,0,0,1,1.742,0,2.213,2.213,0,0,1,1.237,2.9h0A2.306,2.306,0,0,1,258.3,707.383Zm19.619,91.991a2.354,2.354,0,0,1-3.255,0,2.25,2.25,0,0,1,0-3.171,2.4,2.4,0,0,1,3.255,0A2.25,2.25,0,0,1,277.919,799.374Zm59.959,25.5a2.233,2.233,0,1,1,2.292-2.232A2.241,2.241,0,0,1,337.878,824.873ZM401.09,796.2a2.25,2.25,0,0,1,0,3.171,2.353,2.353,0,0,1-3.254,0,2.171,2.171,0,0,1,0-3.171,2.332,2.332,0,0,1,1.6-.67A2.571,2.571,0,0,1,401.09,796.2Zm23.883-60.642a2.233,2.233,0,1,1-2.292,2.232A2.241,2.241,0,0,1,424.973,735.561Zm-27.137-59.348a2.332,2.332,0,0,1,1.6-.67,2.178,2.178,0,0,1,1.6.67,2.25,2.25,0,0,1,0,3.171,2.355,2.355,0,0,1-3.255,0A2.294,2.294,0,0,1,397.836,676.213Zm-59.958-25.5a2.233,2.233,0,1,1-2.292,2.232A2.241,2.241,0,0,1,337.878,650.715Zm-63.213,28.669a2.25,2.25,0,0,1,0-3.171,2.334,2.334,0,0,1,1.6-.67,2.255,2.255,0,0,1,1.6,3.841A2.342,2.342,0,0,1,274.665,679.384Zm63.213-10.807c39.193,0,71.052,31.036,71.052,69.217S377.07,807.01,337.878,807.01s-71.052-31.036-71.052-69.217S298.685,668.577,337.878,668.577Zm-87.1,66.985a2.233,2.233,0,1,1-2.292,2.232A2.24,2.24,0,0,1,250.783,735.561Z"/></g><text class="a" transform="translate(578 1816)"><tspan x="-109.17" y="0">ACTIVELY KILLS</tspan><tspan x="0" y="40"></tspan><tspan x="-125.445" y="80">Creates protective </tspan><tspan x="-111.705" y="120">barrier that lasts </tspan><tspan x="-82.665" y="160">over 30 days</tspan></text><g transform="translate(628.706 639.237)"><path class="b" d="M331.2,952.763a80.616,80.616,0,1,0,80.96,80.616A80.8,80.8,0,0,0,331.2,952.763Zm0,7.052a73.564,73.564,0,1,1-73.276,73.564A73.321,73.321,0,0,1,331.2,959.815Zm-.057,5.849a3.669,3.669,0,0,0-3.612,3.726h0V981.6a3.67,3.67,0,1,0,7.339.1c0-.034,0-.069,0-.1V969.391a3.669,3.669,0,0,0-3.612-3.727Zm-32.453,8.6a3.67,3.67,0,0,0-2.638,5.561l2.179,3.785a3.673,3.673,0,0,0,6.365-3.67l-2.179-3.784A3.669,3.669,0,0,0,298.686,974.264Zm64.16,0a3.67,3.67,0,0,0-2.867,1.892l-2.179,3.784a3.673,3.673,0,0,0,6.365,3.67l2.179-3.785a3.67,3.67,0,0,0-3.5-5.561ZM330.8,992.67a3.669,3.669,0,0,0-3.268,3.669v42.086a3.67,3.67,0,0,0,1.318,2.81l22.591,18.634a3.67,3.67,0,1,0,4.867-5.493c-.072-.064-.146-.125-.223-.183L334.866,1036.7V996.339a3.67,3.67,0,0,0-3.649-3.691A3.563,3.563,0,0,0,330.8,992.67Zm-55.216,4.988a3.67,3.67,0,0,0-1.605,6.88l3.784,2.236a3.673,3.673,0,0,0,3.67-6.365l-3.785-2.236a3.663,3.663,0,0,0-1.72-.516C275.809,997.653,275.694,997.653,275.58,997.658Zm111.176,0a3.669,3.669,0,0,0-2.007.516l-3.784,2.236a3.673,3.673,0,0,0,3.67,6.365l3.784-2.236a3.67,3.67,0,0,0-1.663-6.88Zm-119.891,32.051a3.675,3.675,0,0,0,.4,7.339h12.158a3.67,3.67,0,0,0,.1-7.339H267.266A3.556,3.556,0,0,0,266.864,1029.709Zm115.706,0a3.675,3.675,0,1,0,.4,7.339h12.215a3.67,3.67,0,0,0,.1-7.339H382.971A3.542,3.542,0,0,0,382.57,1029.709Zm-103.493,29.758a3.655,3.655,0,0,0-1.319.516l-3.784,2.179a3.673,3.673,0,0,0,3.669,6.365l3.785-2.237a3.67,3.67,0,0,0-2.351-6.823Zm103.034,0a3.67,3.67,0,0,0-1.147,6.823l3.784,2.237a3.673,3.673,0,1,0,3.67-6.365l-3.784-2.179A3.67,3.67,0,0,0,382.112,1059.467ZM301.5,1081.2a3.67,3.67,0,0,0-3.268,1.892l-2.179,3.842a3.673,3.673,0,0,0,6.365,3.669h0l2.179-3.842a3.669,3.669,0,0,0-3.1-5.561Zm59.286,0a3.669,3.669,0,0,0-2.981,5.561l2.179,3.842a3.673,3.673,0,0,0,6.365-3.669h0l-2.179-3.842A3.67,3.67,0,0,0,360.782,1081.2Zm-29.643.172a3.67,3.67,0,0,0-3.612,3.727h0v12.213a3.67,3.67,0,1,0,7.339.1c0-.035,0-.069,0-.1V1085.1a3.67,3.67,0,0,0-3.612-3.727Z"/></g><text class="a" transform="translate(960 1822)"><tspan x="-77.25" y="0">PROTECTS </tspan><tspan x="0" y="40"></tspan><tspan x="-135.15" y="80">Actively kills viruses,</tspan><tspan x="-86.955" y="120" xml:space="preserve"> bacteria and </tspan><tspan x="-107.61" y="160">other pathogens</tspan></text><g transform="translate(969.432 -41.401)"><g transform="translate(278.568 1634.401)"><path class="c" d="M395.536,1795.691H282.6a4.03,4.03,0,0,1-4.032-4.031V1638.451a4.032,4.032,0,0,1,4.032-4.032l112.892-.018a4.031,4.031,0,0,1,4.032,4.032l.011,152.714a3.75,3.75,0,0,1,.033.512A4.031,4.031,0,0,1,395.536,1795.691Zm-108.9-8.062H391.471l-.013-145.161-104.826.014Z" transform="translate(-278.568 -1634.401)"/><g transform="translate(18.193 25.821)"><path class="c" d="M383.475,1677.037H306.959a4.032,4.032,0,1,1,0-8.065h76.516a4.032,4.032,0,1,1,0,8.065Z" transform="translate(-302.927 -1668.972)"/><path class="c" d="M357.621,1702.409H306.959a4.032,4.032,0,1,1,0-8.065h50.661a4.032,4.032,0,0,1,0,8.065Z" transform="translate(-302.927 -1675.394)"/></g><g transform="translate(38.16 69.184)"><path class="c" d="M366.1,1778.981a25.975,25.975,0,1,1,25.976-25.975A26.005,26.005,0,0,1,366.1,1778.981Zm0-43.887a17.911,17.911,0,1,0,17.911,17.912A17.932,17.932,0,0,0,366.1,1735.094Z" transform="translate(-332.308 -1727.031)"/><g transform="translate(0 36.494)"><path class="c" d="M351.252,1815.619a4.019,4.019,0,0,1-1.9-.477l-17.562-9.4a4.03,4.03,0,0,1-1.635-5.49l12.193-22.262a4.033,4.033,0,0,1,7.074,3.876l-10.239,18.69,10.452,5.592,10.279-18.76a4.032,4.032,0,0,1,7.073,3.874l-12.2,22.262A4.03,4.03,0,0,1,351.252,1815.619Z" transform="translate(-329.66 -1775.893)"/><path class="c" d="M385.733,1815.619a4.03,4.03,0,0,1-3.539-2.1L370,1791.261a4.032,4.032,0,0,1,7.073-3.874l10.276,18.76,10.452-5.592-10.239-18.69a4.032,4.032,0,1,1,7.072-3.875l12.2,22.262a4.029,4.029,0,0,1-1.633,5.49l-17.562,9.4A4.02,4.02,0,0,1,385.733,1815.619Z" transform="translate(-339.745 -1775.892)"/></g></g></g></g><text class="a" transform="translate(1309 1822)"><tspan x="-48.51" y="0">USAGE</tspan><tspan x="0" y="40"></tspan><tspan x="-129.54" y="80">Colorless, odorless, </tspan><tspan x="-135.885" y="120">does not dry out skin</tspan></text></g></svg>