<svg xmlns="http://www.w3.org/2000/svg" xmlns:xlink="http://www.w3.org/1999/xlink" width="100" height="100" viewBox="0 0 100 100"><defs><style>.a{fill:rgba(233,193,194,0.3);}.b{clip-path:url(#a);}</style><clipPath id="a"><rect class="a" width="100" height="100" transform="translate(885 3349)"/></clipPath></defs><g class="b" transform="translate(-885 -3349)"><g transform="translate(888.27 3349)"><path d="M388.051,282.626a4.319,4.319,0,0,0-4.315,4.315v21.577a4.29,4.29,0,0,0,2.381,3.869l16.22,8.333a4.582,4.582,0,0,0,1.935.446,4.319,4.319,0,0,0,1.935-8.185l-13.839-7.143v-18.9A4.319,4.319,0,0,0,388.051,282.626Z" transform="translate(-339.539 -254.353)"/><path d="M235.528,161.421h.149a4.7,4.7,0,0,0,2.827-1.042,3.746,3.746,0,0,0,1.339-2.976l.893-18.452a4.318,4.318,0,1,0-8.631-.3l-.3,6.548a49.983,49.983,0,1,0,7.143,63.839,4.292,4.292,0,1,0-7.143-4.762,41.435,41.435,0,1,1-4.762-51.637l-9.821-.446a4.318,4.318,0,1,0-.3,8.631Z" transform="translate(-147.284 -131.362)"/></g></g></svg>