<svg xmlns="http://www.w3.org/2000/svg" xmlns:xlink="http://www.w3.org/1999/xlink" width="100" height="100" viewBox="0 0 100 100"><defs><style>.a{fill:rgba(233,193,194,0.3);}.b{clip-path:url(#a);}</style><clipPath id="a"><rect class="a" width="100" height="100" transform="translate(752 3349)"/></clipPath></defs><g class="b" transform="translate(-752 -3349)"><g transform="translate(752 3350.921)"><path d="M100.924,39.625a6.631,6.631,0,0,0-2.9,7.973L85.6,54.957a28.013,28.013,0,0,0-1.5-2.545A27.4,27.4,0,0,0,66.6,40.639c-.362-.073-.723-.137-1.085-.2l1.44-5.733a4.756,4.756,0,1,0-2.362-.611l-1.52,6.056a27.556,27.556,0,0,0-17.6,4.807l-7.2-12.112a6.657,6.657,0,1,0-2.107,1.229L43.51,46.442a27.386,27.386,0,0,0-9.246,14.9l-5.631-1.41A4.753,4.753,0,0,0,24.822,55.3h0a4.751,4.751,0,1,0,3.2,6.985l5.795,1.45A27.23,27.23,0,0,0,35.8,78.551l-13.027,6.9a6.627,6.627,0,1,0,1.134,2.161l12.968-6.871q.577,1.057,1.25,2.075A27.359,27.359,0,0,0,53.173,93.98l-1.41,5.615a4.752,4.752,0,1,0,2.362.609l1.414-5.631.085.018A27.466,27.466,0,0,0,72.548,92.65l6.835,12.855a6.655,6.655,0,1,0,2.162-1.129L74.719,91.539A27.479,27.479,0,0,0,88,73.686l5.628,1.409a4.754,4.754,0,0,0,3.813,4.625h0a4.751,4.751,0,1,0-3.2-6.985l-5.807-1.453a27.23,27.23,0,0,0-1.8-14.1L99.258,49.7a6.638,6.638,0,1,0,1.666-10.077ZM37.984,28.9a4.169,4.169,0,0,1-1.946,2.559,4.194,4.194,0,1,1,1.511-5.738,4.161,4.161,0,0,1,.435,3.179ZM26.147,60.42a2.32,2.32,0,0,1-4.2.816A2.292,2.292,0,0,1,21.6,59.5,2.317,2.317,0,0,1,24.337,57.7h0a2.312,2.312,0,0,1,1.809,2.724ZM21.566,90.813A4.171,4.171,0,0,1,19.5,93.278a4.194,4.194,0,1,1,1.781-5.661,4.161,4.161,0,0,1,.285,3.2ZM81.547,107a4.191,4.191,0,1,1-2.064,2.461A4.214,4.214,0,0,1,81.547,107ZM96.117,74.6a2.32,2.32,0,0,1,4.2-.816,2.29,2.29,0,0,1,.339,1.735,2.32,2.32,0,0,1-2.733,1.806h0A2.312,2.312,0,0,1,96.118,74.6ZM64.65,29.5a2.32,2.32,0,0,1,4.2-.817,2.292,2.292,0,0,1,.339,1.735,2.32,2.32,0,0,1-4.2.816A2.29,2.29,0,0,1,64.65,29.5ZM54.063,104.8a2.32,2.32,0,0,1-4.2.816,2.291,2.291,0,0,1-.339-1.735,2.32,2.32,0,0,1,4.2-.816,2.293,2.293,0,0,1,.338,1.735Zm31.677-32.2a25.1,25.1,0,1,1-3.678-18.846A24.887,24.887,0,0,1,85.74,72.607Zm22.6-26.189a4.167,4.167,0,0,1-1.946,2.559,4.194,4.194,0,1,1,1.511-5.738,4.161,4.161,0,0,1,.435,3.179Z" transform="translate(-10.914 -21.202)"/><path d="M128.86,183.135a1.317,1.317,0,1,0-.389-.934A1.321,1.321,0,0,0,128.86,183.135Z" transform="translate(-106.498 -151.033)"/><path d="M84.008,138.9,89.9,144.8a1.22,1.22,0,1,0,1.725-1.725l-5.893-5.893a1.22,1.22,0,1,0-1.725,1.725Z" transform="translate(-70.055 -115.21)"/><path d="M65.408,87.366a1.22,1.22,0,1,0,1.725-1.725l-1.548-1.548a1.22,1.22,0,0,0-1.725,1.725Z" transform="translate(-53.673 -72.047)"/><path d="M95.7,117.658a1.22,1.22,0,1,0,1.725-1.725l-6.294-6.293a1.22,1.22,0,1,0-1.725,1.725Z" transform="translate(-74.445 -92.819)"/><path d="M74.6,464.921h0a1.321,1.321,0,0,0,0,2.643h0a1.321,1.321,0,1,0,0-2.643Z" transform="translate(-61.619 -381.983)"/><path d="M94.868,420.451a1.22,1.22,0,0,0-1.725,0l-5.893,5.893a1.22,1.22,0,0,0,1.725,1.725l5.893-5.893A1.22,1.22,0,0,0,94.868,420.451Z" transform="translate(-72.691 -345.534)"/><path d="M166.219,400.3l-1.548,1.548a1.22,1.22,0,1,0,1.725,1.725l1.548-1.548a1.22,1.22,0,1,0-1.725-1.725Z" transform="translate(-135.641 -329.152)"/><path d="M120.031,425.853l-6.293,6.293a1.22,1.22,0,1,0,1.725,1.725l6.293-6.293a1.22,1.22,0,1,0-1.725-1.725Z" transform="translate(-94.228 -349.927)"/><path d="M417.357,352.729a1.321,1.321,0,1,0-2.283.866h0a1.312,1.312,0,0,0,.923.415h.041a1.321,1.321,0,0,0,1.32-1.283Z" transform="translate(-339.239 -289.656)"/><path d="M430.812,365.772a1.22,1.22,0,1,0-1.775,1.673l5.717,6.065a1.22,1.22,0,1,0,1.775-1.673Z" transform="translate(-350.613 -301.055)"/><path d="M474.805,445.974a1.22,1.22,0,0,0-1.775,1.673l1.5,1.593a1.22,1.22,0,1,0,1.775-1.673Z" transform="translate(-386.383 -366.266)"/><path d="M425.4,393.558a1.22,1.22,0,0,0-1.775,1.673l6.1,6.477a1.22,1.22,0,1,0,1.775-1.673Z" transform="translate(-346.213 -323.647)"/><path d="M453.1,75.023a1.321,1.321,0,1,0-.934-.386A1.321,1.321,0,0,0,453.1,75.023Z" transform="translate(-369.37 -62.814)"/><path d="M408.075,94.746a1.22,1.22,0,0,0,1.725,0l5.893-5.893a1.22,1.22,0,1,0-1.725-1.725l-5.893,5.894A1.22,1.22,0,0,0,408.075,94.746Z" transform="translate(-333.549 -74.515)"/><path d="M368.443,129.45a1.321,1.321,0,1,0-.935-.386,1.321,1.321,0,0,0,.935.386Z" transform="translate(-300.54 -107.068)"/><path d="M381.972,88.582a1.216,1.216,0,0,0,.862-.357l6.293-6.293a1.22,1.22,0,1,0-1.725-1.725L381.11,86.5a1.22,1.22,0,0,0,.862,2.082Z" transform="translate(-311.624 -68.887)"/><path d="M185.012,210.788a4.456,4.456,0,1,0-4.456,4.45A4.456,4.456,0,0,0,185.012,210.788Zm-6.473,0a2.017,2.017,0,1,1,2.017,2.011A2.017,2.017,0,0,1,178.539,210.788Z" transform="translate(-145.224 -171.723)"/><path d="M199.489,307.944a6.21,6.21,0,1,0,6.219,6.21A6.21,6.21,0,0,0,199.489,307.944Zm0,9.981a3.771,3.771,0,1,1,3.78-3.771,3.771,3.771,0,0,1-3.78,3.771Z" transform="translate(-159.199 -254.348)"/><path d="M338.445,201.054a6.21,6.21,0,1,0,6.22,6.21A6.21,6.21,0,0,0,338.445,201.054Zm0,9.981a3.771,3.771,0,1,1,3.781-3.771,3.771,3.771,0,0,1-3.781,3.771Z" transform="translate(-272.183 -167.437)"/><path d="M258.361,164.678q.093,0,.185,0A4.517,4.517,0,0,0,261.7,163.4a4.859,4.859,0,0,0,1.3-4.733,1.919,1.919,0,0,1,.167-1.487,4.066,4.066,0,0,0-.739-5.117,3.783,3.783,0,0,0-2.971-.96,3.96,3.96,0,0,0-3.429,3.435,4.156,4.156,0,0,0-.034.545,2.058,2.058,0,0,1-.654,1.416,4.834,4.834,0,0,0-1.413,3.587A4.7,4.7,0,0,0,258.361,164.678Zm-1.3-6.442a4.432,4.432,0,0,0,1.377-3.16,1.725,1.725,0,0,1,.014-.225,1.518,1.518,0,0,1,1.274-1.321,1.43,1.43,0,0,1,.153-.008,1.377,1.377,0,0,1,.926.359,1.6,1.6,0,0,1,.519,1.189,1.613,1.613,0,0,1-.233.841,4.362,4.362,0,0,0-.442,3.386,2.427,2.427,0,0,1,.081.627,2.388,2.388,0,0,1-.719,1.718,2.1,2.1,0,0,1-1.547.6,2.286,2.286,0,0,1-2.094-2.231,2.387,2.387,0,0,1,.692-1.774Z" transform="translate(-208.502 -126.805)"/><path d="M301.277,316.576a4.174,4.174,0,0,0-.5-.219,2.063,2.063,0,0,1-1.109-1.1,4.84,4.84,0,0,0-2.887-2.557,4.71,4.71,0,0,0-5.837,2.58,4.5,4.5,0,0,0,.049,3.562,4.871,4.871,0,0,0,4,2.855,1.931,1.931,0,0,1,1.344.669,4.094,4.094,0,0,0,3.189,1.528,4,4,0,0,0,1.879-.466,3.78,3.78,0,0,0,1.92-2.454A3.955,3.955,0,0,0,301.277,316.576Zm-.317,3.811a1.369,1.369,0,0,1-.7.887,1.606,1.606,0,0,1-1.3.079,1.625,1.625,0,0,1-.713-.508,4.376,4.376,0,0,0-3.031-1.577,2.443,2.443,0,0,1-.618-.139,2.394,2.394,0,0,1-1.372-1.268,2.085,2.085,0,0,1-.028-1.649,2.236,2.236,0,0,1,2.082-1.312,2.366,2.366,0,0,1,.739.118,2.393,2.393,0,0,1,1.432,1.259,4.436,4.436,0,0,0,2.5,2.376,1.729,1.729,0,0,1,.209.091A1.514,1.514,0,0,1,300.96,320.387Z" transform="translate(-238.322 -258.016)"/><path d="M256.439,255.6a1.22,1.22,0,1,0,2.126-1.2,3.709,3.709,0,0,0-6.9,1.256,1.27,1.27,0,0,1-2.342.46,1.22,1.22,0,0,0-2.09,1.259,3.665,3.665,0,0,0,3.157,1.8,3.825,3.825,0,0,0,.741-.073,3.669,3.669,0,0,0,2.946-3.075,1.27,1.27,0,0,1,2.361-.428Z" transform="translate(-202.92 -209.281)"/></g></g></svg>