<svg xmlns="http://www.w3.org/2000/svg" width="113.141" height="136.037" viewBox="0 0 113.141 136.037"><defs><style>.a{fill:#0d1e3d;}</style></defs><g transform="translate(-10.5 -2.5)"><path class="a" d="M123.482,72.4a11.754,11.754,0,0,0-2.578-9.451,11.884,11.884,0,0,0-8.878-4.153H87.4c.716-4.153,1.432-7.16,2.148-10.167a94.258,94.258,0,0,0,2.864-15.465A11.9,11.9,0,0,0,82.385,19.845c-5.728-.859-12.315,2-14.033,9.308-4.01,18.472-19.618,30.93-24.2,34.224a3.13,3.13,0,0,1-.716.43H18.089A7.64,7.64,0,0,0,10.5,71.4v43.245a7.64,7.64,0,0,0,7.589,7.589H43.865a38.357,38.357,0,0,1,4.725,2c5.3,2.721,13.174,6.873,29.642,6.873h29.355a12.169,12.169,0,0,0,12.029-9.737,11.754,11.754,0,0,0-2.578-9.451h0a12.061,12.061,0,0,0,4.01-6.73,11.754,11.754,0,0,0-2.578-9.451V95.6a12.061,12.061,0,0,0,4.01-6.73,11.754,11.754,0,0,0-2.578-9.451h0A13.729,13.729,0,0,0,123.482,72.4ZM17.517,114.641v-43.1a.616.616,0,0,1,.573-.573H41v44.391H18.089A.951.951,0,0,1,17.517,114.641Zm90.214-32.506h3.007a4.344,4.344,0,0,1,3.58,1.718,4.6,4.6,0,0,1,1,3.866,5.158,5.158,0,0,1-5.155,3.866H106.3a3.392,3.392,0,0,0-3.437,3.437A3.485,3.485,0,0,0,106.3,98.46h3.007a4.344,4.344,0,0,1,3.58,1.718,4.6,4.6,0,0,1,1,3.866,5.158,5.158,0,0,1-5.155,3.866h-3.866a3.392,3.392,0,0,0-3.437,3.437,3.485,3.485,0,0,0,3.437,3.437h3.007a4.344,4.344,0,0,1,3.58,1.718,4.6,4.6,0,0,1,1,3.866,5.158,5.158,0,0,1-5.155,3.866H78.232c-14.749,0-21.48-3.437-26.491-6.014-1.289-.716-2.578-1.289-3.866-1.862V69.247c.143,0,.143-.143.286-.143C53.316,65.381,70.5,51.491,75.082,30.871a5.138,5.138,0,0,1,6.014-4.01c2.291.43,4.582,2,4.153,5.728a89.125,89.125,0,0,1-2.578,14.463c-.859,3.437-1.718,7.017-2.578,12.029a6.073,6.073,0,0,0,1.289,4.869,5.872,5.872,0,0,0,4.439,2H111.74a4.344,4.344,0,0,1,3.58,1.718,4.6,4.6,0,0,1,1,3.866A5.11,5.11,0,0,1,111.31,75.4h-3.866a3.392,3.392,0,0,0-3.437,3.437A3.532,3.532,0,0,0,107.731,82.135Z" transform="translate(0 7.428)"/><circle class="a" cx="5.441" cy="5.441" r="5.441" transform="translate(23.817 105.458)"/><path class="a" d="M60.037,18.538A3.392,3.392,0,0,0,63.473,15.1V5.937a3.437,3.437,0,0,0-6.873,0v9.021A3.516,3.516,0,0,0,60.037,18.538Z" transform="translate(19.914)"/><path class="a" d="M47.011,21.78a3.354,3.354,0,0,0,2.434,1,3.141,3.141,0,0,0,2.434-1,3.461,3.461,0,0,0,0-5.012l-6.444-6.444a3.544,3.544,0,0,0-5.012,5.012Z" transform="translate(12.462 2.916)"/><path class="a" d="M35.737,33.273h9.021a3.392,3.392,0,0,0,3.437-3.437A3.485,3.485,0,0,0,44.758,26.4H35.737A3.392,3.392,0,0,0,32.3,29.837,3.485,3.485,0,0,0,35.737,33.273Z" transform="translate(9.417 10.324)"/><path class="a" d="M74.1,30.237a3.392,3.392,0,0,0,3.437,3.437h9.021a3.392,3.392,0,0,0,3.437-3.437A3.485,3.485,0,0,0,86.558,26.8H77.537A3.485,3.485,0,0,0,74.1,30.237Z" transform="translate(27.473 10.497)"/><path class="a" d="M72.6,23.182a3.141,3.141,0,0,0,2.434-1l6.444-6.444a3.544,3.544,0,1,0-5.012-5.012l-6.444,6.444a3.461,3.461,0,0,0,0,5.012A4.461,4.461,0,0,0,72.6,23.182Z" transform="translate(25.248 3.089)"/></g></svg>