<svg xmlns="http://www.w3.org/2000/svg" width="49.949" height="37.243" viewBox="0 0 49.949 37.243"><defs><style>.a,.c{fill:none;stroke:#5c4efe;}.b{fill:#d0cfce;}.c{stroke-linecap:round;stroke-linejoin:round;stroke-miterlimit:10;stroke-width:2px;}</style></defs><g transform="translate(-11.126 -16.021)"><path class="a" d="M33.853,28.007a9.584,9.584,0,1,0,9.584,9.584A9.595,9.595,0,0,0,33.853,28.007Zm0,14.584a5,5,0,1,1,5-5A5.005,5.005,0,0,1,33.853,42.591Z"/><circle class="b" cx="5" cy="5" r="5" transform="translate(28.853 32.591)"/><path class="a" d="M57.931,22.918H15.27c-1.182,0-3.144,1.924-3.144,3.062l.457,7.218h8.046l4.149.189c-.012.021,3.277-5.8,9.074-5.8,4.15,0,8.743,5.011,8.739,5l3.392.3,14.3.23-.213-7.14C60.074,24.842,59.112,22.918,57.931,22.918Z"/><path class="a" d="M28.818,19.184a14.162,14.162,0,0,1-1.35-2.163H18.433s-1.282,2.5-1.306,2.439v3.329l11.691-.118V19.184Z"/><path class="a" d="M56.973,52.518a24.483,24.483,0,0,0,3.1-1.924l.213-17.473-10.778-.226-2.383-.7H43.436l.014.035h0c.219.391-.665.8-.494,1.215.011.028.3,8,.155,8.143a46.756,46.756,0,0,1-3.06,3.845,8.946,8.946,0,0,1-4.673,2.039c-.345.033-2,.113-2.113.1a14.8,14.8,0,0,1-4.2-1.394,13.488,13.488,0,0,1-3.21-2.588,7.437,7.437,0,0,1-1-2,9.624,9.624,0,0,1-.84-4.782,28.269,28.269,0,0,1,1.348-4.5L20.629,32.2c.181,0-8.909.393-8.909.393l.1,16.611a7.354,7.354,0,0,0,1.224,2.165,4.361,4.361,0,0,0,1.944,1.151Z"/><path class="c" d="M15.27,22.918a3.1,3.1,0,0,0-3.144,3.062V49.2a3.1,3.1,0,0,0,3.144,3.062H56.93A3.1,3.1,0,0,0,60.074,49.2V25.98a3.1,3.1,0,0,0-3.144-3.062H15.27Z"/><line class="c" x2="12.466" transform="translate(47.152 33.197)"/><line class="c" x2="8.047" transform="translate(12.582 33.197)"/><circle class="c" cx="10" cy="10" r="10" transform="translate(23.852 27.591)"/><circle class="c" cx="5" cy="5" r="5" transform="translate(28.852 32.591)"/><path class="c" d="M27.831,19.12V18.042a1.035,1.035,0,0,0-1.048-1.021H19.106a1.035,1.035,0,0,0-1.048,1.021V19.12"/></g></svg>