<svg xmlns="http://www.w3.org/2000/svg" width="30" height="30" viewBox="0 0 30 30"><defs><style>.a{fill:#5c4efe;fill-rule:evenodd;}</style></defs><g transform="translate(0 -2)"><path class="a" d="M15,2A15,15,0,1,0,30,17,15,15,0,0,0,15,2Zm0,27A12,12,0,1,1,27,17,12,12,0,0,1,15,29Z"/><path class="a" d="M20.963,20.136A1,1,0,0,0,19.6,20.5,3.018,3.018,0,0,1,17,22H13a3,3,0,0,1-2.828-2H15a1,1,0,0,0,0-2H10V16h5a1,1,0,0,0,0-2H10.172A3,3,0,0,1,13,12h4a3.018,3.018,0,0,1,2.6,1.5A1,1,0,0,0,21.324,12.5,5.025,5.025,0,0,0,17,10H13a5.007,5.007,0,0,0-4.9,4H7a1,1,0,1,0,0,2H8v2H7a1,1,0,0,0,0,2H8.1A5.009,5.009,0,0,0,13,24h4a5.025,5.025,0,0,0,4.325-2.5,1,1,0,0,0-.362-1.367Z"/></g></svg>