<svg xmlns="http://www.w3.org/2000/svg" width="28" height="31.626" viewBox="0 0 28 31.626"><defs><style>.a{fill:#5c4efe;fill-rule:evenodd;}</style></defs><path class="a" d="M24.11,10a12.62,12.62,0,0,0,1.608-1.348,6.9,6.9,0,0,0,1.966-3.616,4.019,4.019,0,0,0-.988-3.6A3.761,3.761,0,0,0,23.966.374a6.515,6.515,0,0,0-4.483,2.043,17.657,17.657,0,0,0-3.94,6.991,14.269,14.269,0,0,0-3.313-6.7A5.008,5.008,0,0,0,8.735,1.188,3.67,3.67,0,0,0,6.1,2.234C4.54,3.8,4.751,6.54,6.573,8.362A10.081,10.081,0,0,0,8.783,10H2v8H4V32H28V18h2V10h-5.89ZM21.073,4.007a4.338,4.338,0,0,1,2.892-1.384,1.6,1.6,0,0,1,1.139.406c.813.813.357,2.7-.977,4.031A14.084,14.084,0,0,1,19.3,10H17.717a15.326,15.326,0,0,1,3.356-5.993ZM7.31,5.028a1.533,1.533,0,0,1,.381-1.2,1.452,1.452,0,0,1,1.042-.387h0a2.761,2.761,0,0,1,1.9.859,11.112,11.112,0,0,1,2.521,4.871c.016.057.031.115.047.171l-.171-.047A11.112,11.112,0,0,1,8.163,6.771,2.85,2.85,0,0,1,7.31,5.028ZM14,30H6V17h8Zm0-14H4V12H14ZM26,30H18V17h8Zm2-14H18V12H28Z" transform="translate(-2.001 -0.374)"/></svg>