<svg xmlns="http://www.w3.org/2000/svg" width="48.125" height="49.739" viewBox="0 0 48.125 49.739"><defs><style>.a{fill:#db9195;}.b{fill:none;stroke:#db9195;stroke-linejoin:round;stroke-miterlimit:10;stroke-width:2px;}</style></defs><g transform="translate(-10 -12)"><g transform="translate(11 13)"><path class="a" d="M43,36.165A8.511,8.511,0,0,0,27,32.12,8.51,8.51,0,1,0,12.886,41.5l0,0L27,59,41.117,41.5l0,0A8.471,8.471,0,0,0,43,36.165Z" transform="translate(-11 -11.261)"/><path class="a" d="M61,17.521a4.522,4.522,0,0,0-8.5-2.149A4.521,4.521,0,1,0,45,20.357h0l7.5,9.295L60,20.358h0A4.5,4.5,0,0,0,61,17.521Z" transform="translate(-14.875 -13)"/></g><g transform="translate(11 13)"><g transform="translate(0 16.393)"><path class="b" d="M43,36.165A8.511,8.511,0,0,0,27,32.12,8.51,8.51,0,1,0,12.886,41.5l0,0L27,59,41.117,41.5l0,0A8.471,8.471,0,0,0,43,36.165Z" transform="translate(-11 -27.654)"/></g><g transform="translate(29.125)"><path class="b" d="M61,17.521a4.522,4.522,0,0,0-8.5-2.149A4.521,4.521,0,1,0,45,20.357h0l7.5,9.295L60,20.358h0A4.5,4.5,0,0,0,61,17.521Z" transform="translate(-44 -13)"/></g></g></g></svg>