<svg xmlns="http://www.w3.org/2000/svg" width="54" height="48.33" viewBox="0 0 54 48.33"><defs><style>.a,.c,.d{fill:none;stroke:#db9195;stroke-miterlimit:10;}.a,.d{stroke-width:2px;}.b{fill:#db9195;}.d{stroke-linecap:round;stroke-linejoin:round;}</style></defs><g transform="translate(-13 -11.521)"><path class="a" d="M29.823,45.4"/><path class="a" d="M27.23,21.088"/><path class="a" d="M48.06,45.275"/><path class="a" d="M45.466,20.966"/><path class="b" d="M31.853,29.874V12.521h10.3v17.36H42.2l4.052,0H59.605v10.3H46.256l-4.107,0V58.851h-10.3V40.169h-.1l-3.818,0H14v-10.3H27.933l3.836,0Z"/><path class="a" d="M29.823,45.4"/><path class="a" d="M27.23,21.088"/><path class="a" d="M48.06,45.275"/><path class="a" d="M45.466,20.966"/><path class="c" d="M67,28.4"/><path class="c" d="M67,28.4"/><path class="d" d="M31.853,29.874V12.521h10.3v17.36H42.2l4.052,0H59.605v10.3H46.256l-4.107,0V58.851h-10.3V40.169h-.1l-3.818,0H14v-10.3H27.933l3.836,0Z"/></g></svg>