<svg xmlns="http://www.w3.org/2000/svg" width="51.302" height="51.759" viewBox="0 0 51.302 51.759"><defs><style>.a{fill:#5c4efe;}.b{fill:none;stroke:#1f2249;stroke-linecap:round;stroke-linejoin:round;stroke-miterlimit:10;stroke-width:2px;}</style></defs><g transform="translate(-10.349 -10.079)"><path class="a" d="M51.9,18.6V42.357H15.015L11.349,18.6Z"/><circle class="a" cx="2.375" cy="2.375" r="2.375" transform="translate(47.767 56.088)"/><circle class="a" cx="2.375" cy="2.375" r="2.375" transform="translate(11.66 56.088)"/><path class="a" d="M47.768,38.893"/><path class="a" d="M47.768,19.937"/><path class="a" d="M41.1,37.67"/><path class="a" d="M41.1,19.937"/><path class="a" d="M34.439,37.67"/><path class="a" d="M34.439,19.937"/><path class="a" d="M27.775,37.67"/><path class="a" d="M27.775,19.937"/><path class="a" d="M21.111,38.154"/><path class="a" d="M21.111,19.937"/><path class="a" d="M14.448,37.67"/><path class="a" d="M14.448,19.937"/><path class="a" d="M14.448,26.867"/><path class="a" d="M47.971,28.09"/><path class="a" d="M47.971,34.409"/><line class="a" y2="0.79" transform="translate(45.664 23.644)"/><line class="a" y2="0.79" transform="translate(45.664 36.753)"/><line class="a" y2="0.79" transform="translate(40.288 23.644)"/><line class="a" y2="0.79" transform="translate(40.288 36.753)"/><line class="a" y2="0.79" transform="translate(34.912 23.644)"/><line class="a" y2="0.79" transform="translate(34.912 36.753)"/><line class="a" y2="0.79" transform="translate(29.537 23.644)"/><line class="a" y2="0.79" transform="translate(29.537 36.753)"/><line class="a" y2="0.79" transform="translate(24.161 23.644)"/><line class="a" y2="0.79" transform="translate(24.161 36.753)"/><line class="a" y2="0.79" transform="translate(18.785 23.644)"/><line class="a" y2="0.79" transform="translate(18.785 36.753)"/><path class="a" d="M47.768,32.139"/><path class="a" d="M41.1,30.916"/><path class="a" d="M34.439,30.916"/><path class="a" d="M27.775,30.916"/><path class="a" d="M21.111,31.4"/><path class="a" d="M14.448,30.916"/><line class="a" y2="0.79" transform="translate(45.664 29.999)"/><line class="a" y2="0.79" transform="translate(40.288 29.999)"/><line class="a" y2="0.79" transform="translate(34.912 29.999)"/><line class="a" y2="0.79" transform="translate(29.537 29.999)"/><line class="a" y2="0.79" transform="translate(24.161 29.999)"/><line class="a" y2="0.79" transform="translate(18.785 29.999)"/><path class="b" d="M51.9,18.6V42.357H15.015L11.349,18.6Z"/><path class="b" d="M51.9,18.6l3.6-7.523h5.145"/><line class="b" x2="37.871" transform="translate(14.035 51.861)"/><circle class="b" cx="2.375" cy="2.375" r="2.375" transform="translate(47.767 56.088)"/><circle class="b" cx="2.375" cy="2.375" r="2.375" transform="translate(11.66 56.088)"/><path class="b" d="M47.768,38.893"/><path class="b" d="M47.768,19.937"/><path class="b" d="M41.1,37.67"/><path class="b" d="M41.1,19.937"/><path class="b" d="M34.439,37.67"/><path class="b" d="M34.439,19.937"/><path class="b" d="M27.775,37.67"/><path class="b" d="M27.775,19.937"/><path class="b" d="M21.111,38.154"/><path class="b" d="M21.111,19.937"/><path class="b" d="M14.448,37.67"/><path class="b" d="M14.448,19.937"/><path class="b" d="M14.448,26.867"/><path class="b" d="M47.971,28.09"/><path class="b" d="M47.971,34.409"/><path class="b" d="M51.9,42.357s4.841.356,4.841,4.788c0,5.122-4.583,4.712-4.583,4.712"/><line class="b" y2="0.79" transform="translate(45.664 23.644)"/><line class="b" y2="0.79" transform="translate(45.664 36.753)"/><line class="b" y2="0.79" transform="translate(40.288 23.644)"/><line class="b" y2="0.79" transform="translate(40.288 36.753)"/><line class="b" y2="0.79" transform="translate(34.912 23.644)"/><line class="b" y2="0.79" transform="translate(34.912 36.753)"/><line class="b" y2="0.79" transform="translate(29.537 23.644)"/><line class="b" y2="0.79" transform="translate(29.537 36.753)"/><line class="b" y2="0.79" transform="translate(24.161 23.644)"/><line class="b" y2="0.79" transform="translate(24.161 36.753)"/><line class="b" y2="0.79" transform="translate(18.785 23.644)"/><line class="b" y2="0.79" transform="translate(18.785 36.753)"/><path class="b" d="M47.768,32.139"/><path class="b" d="M41.1,30.916"/><path class="b" d="M34.439,30.916"/><path class="b" d="M27.775,30.916"/><path class="b" d="M21.111,31.4"/><path class="b" d="M14.448,30.916"/><line class="b" y2="0.79" transform="translate(45.664 29.999)"/><line class="b" y2="0.79" transform="translate(40.288 29.999)"/><line class="b" y2="0.79" transform="translate(34.912 29.999)"/><line class="b" y2="0.79" transform="translate(29.537 29.999)"/><line class="b" y2="0.79" transform="translate(24.161 29.999)"/><line class="b" y2="0.79" transform="translate(18.785 29.999)"/></g></svg>