<svg xmlns="http://www.w3.org/2000/svg" width="50" height="49.5" viewBox="0 0 50 49.5"><defs><style>.a,.d,.e{fill:none;}.a,.b,.c,.d,.e{stroke:#5c4efe;}.a,.c,.e{stroke-linecap:round;}.a,.c,.d,.e{stroke-width:2px;}.b{fill:#5c4efe;}.d,.e{stroke-linejoin:round;}.e{stroke-miterlimit:10;}</style></defs><g transform="translate(-11 -12)"><path class="a" d="M18,54H32"/><path class="b" d="M15,27V26a1,1,0,0,0-1,1Zm20,0h1a1,1,0,0,0-1-1ZM20,38a1,1,0,0,0-2,0Zm4,0a1,1,0,0,0-2,0Zm4,0a1,1,0,0,0-2,0Zm4,0a1,1,0,0,0-2,0ZM15,28H35V26H15Zm1,10V27H14V38Zm1,1a1,1,0,0,1-1-1H14a3,3,0,0,0,3,3Zm1-1a1,1,0,0,1-1,1v2a3,3,0,0,0,3-3Zm3,1a1,1,0,0,1-1-1H18a3,3,0,0,0,3,3Zm1-1a1,1,0,0,1-1,1v2a3,3,0,0,0,3-3Zm3,1a1,1,0,0,1-1-1H22a3,3,0,0,0,3,3Zm1-1a1,1,0,0,1-1,1v2a3,3,0,0,0,3-3Zm3,1a1,1,0,0,1-1-1H26a3,3,0,0,0,3,3Zm1-1a1,1,0,0,1-1,1v2a3,3,0,0,0,3-3Zm3,1a1,1,0,0,1-1-1H30a3,3,0,0,0,3,3Zm1-1a1,1,0,0,1-1,1v2a3,3,0,0,0,3-3Zm0-11V38h2V27Z"/><line class="c" y1="16" transform="translate(35 43)"/><line class="c" y1="16" transform="translate(15 43)"/><path class="b" d="M56,60h1a1,1,0,0,1-1,1ZM42,60v1a1,1,0,0,1-1-1Zm7-27a6,6,0,0,0-6,6H41a8,8,0,0,1,8-8Zm6,6a6,6,0,0,0-6-6V31a8,8,0,0,1,8,8Zm0,21V39h2V60ZM42,59H56v2H42Zm1-20V60H41V39Z"/><rect class="d" width="48" height="47" transform="translate(12 13)"/><path class="e" d="M50.03,16h-4v7h4"/><path class="e" d="M46.03,19.5h3"/><path class="e" d="M57.03,16h-4v7h4"/><path class="e" d="M53.03,19.5h3"/><path class="e" d="M29.03,23l-3-7-3,7"/><path class="e" d="M24.03,21.321h4"/><path class="e" d="M35.03,19.5h-3V16h4"/><path class="e" d="M42.2,19.5h-3V16h4"/><path class="e" d="M16,16v7"/><path class="e" d="M16.019,20.539l4-4.539"/><path class="e" d="M17.986,18.357,20.383,23"/></g></svg>