<svg xmlns="http://www.w3.org/2000/svg" width="29.962" height="29.96" viewBox="0 0 29.962 29.96"><defs><style>.a{fill:#5c4efe;}.a,.b{fill-rule:evenodd;}.b{fill:#37364c;}</style></defs><g transform="translate(-2.038)"><path class="a" d="M32,8.828,29.172,6l-5.586,5.586L20.414,8.414,26,2.828,23.172,0,17.586,5.586,14,2,11.293,4.707l16,16L30,18l-3.586-3.586L32,8.828Z"/><path class="b" d="M24.814,21.056,10.944,7.186C7.95,10.777,4.553,16.325,6.9,21.1L2.767,25.232a2.507,2.507,0,0,0,0,3.535l.464.464a2.508,2.508,0,0,0,3.536,0L10.9,25.1c4.774,2.348,10.322-1.049,13.913-4.043Z"/></g></svg>