<svg xmlns="http://www.w3.org/2000/svg" width="120.939" height="86.385" viewBox="0 0 120.939 86.385"><defs><style>.a{fill-rule:evenodd;}</style></defs><path class="a" d="M47.512,86.169a43.193,43.193,0,1,1,0-85.952V13.174a30.235,30.235,0,0,0-4.319-.217,30.235,30.235,0,1,0,0,60.47,30.234,30.234,0,0,0,4.319-.216Z" transform="translate(0 0)"/><path class="a" d="M217.512,86.169a43.193,43.193,0,1,1,0-85.952V13.174a31,31,0,0,0-33.855,23.542l25.216,0V49.672H183.658a31,31,0,0,0,33.854,23.539Z" transform="translate(-96.573 0)"/></svg>