<svg xmlns="http://www.w3.org/2000/svg" width="114.766" height="68.739" viewBox="0 0 114.766 68.739"><defs><style>.a{fill:none;}.b{fill:#0d1e3d;}</style></defs><g transform="translate(-594.46 -3550)"><path class="a" d="M40.751,59.28H58.327V21.63H40.751Zm4.643-8.036a2.989,2.989,0,1,0,0,.01Z" transform="translate(647.786 3555.767)"/><path class="a" d="M10.22,29.869a3.541,3.541,0,0,0,3.536-3.538A19.94,19.94,0,0,0,10.22,19.5a19.911,19.911,0,0,0-3.538,6.826,3.544,3.544,0,0,0,3.538,3.544Z" transform="translate(593.538 3552.376)"/><path class="a" d="M12.5,23.022a3.544,3.544,0,0,0,3.538-3.531A20.088,20.088,0,0,0,12.5,12.668,19.935,19.935,0,0,0,8.96,19.491,3.544,3.544,0,0,0,12.5,23.022Z" transform="translate(597.165 3541.497)"/><path class="a" d="M81.169,24.555,78.4,24.239c-9.273-1.06-14.379-1.644-21.985.43a91.09,91.09,0,0,1-22.931,2.709,2.527,2.527,0,0,0-1.068,2.442c.148,2.623,3.37,4.057,8.456,3.87,20.028-.778,26.369,1.929,28.38,3.86a16.072,16.072,0,0,1,5.413,6.082,1.555,1.555,0,0,1-2.839,1.27,13.057,13.057,0,0,0-3.321-4.018c-4.407.6-9.374,2.24-9.659,3.743a1.555,1.555,0,0,1-1.457,1.265L35.418,46.93a1.973,1.973,0,0,1-.565-.078l-25.594-8.5a2.693,2.693,0,0,0-2.04,4.98c2.561,1.128,5.962,2.73,9.516,4.407,6.8,3.207,16.124,7.6,18.092,7.777.207.018.656.067,1.3.14a186.258,186.258,0,0,0,27.4,1.446,221.781,221.781,0,0,0,30-4.614V27.223a38.48,38.48,0,0,0-12.355-2.667Z" transform="translate(591.899 3558.392)"/><path class="b" d="M117.668,20.431H96.984a1.555,1.555,0,0,0-1.555,1.555v6.429A51.48,51.48,0,0,0,83.411,26l-2.758-.314c-9.332-1.071-14.973-1.719-23.162.518a88.872,88.872,0,0,1-21.843,2.613,3.86,3.86,0,0,0-3.489,1.991A6.281,6.281,0,0,0,32,37.242c1.156,2.014,3.984,4.378,10.888,4.093,13.781-.539,20.419.63,23.535,1.638-3.131.721-6.911,2.053-8.277,4.407l-20.686.988-25.3-8.428a5.8,5.8,0,0,0-4.3,10.771c2.538,1.12,5.908,2.706,9.441,4.373,10.04,4.731,16.8,7.849,19.141,8.059.2.018.622.065,1.237.132,3.925.433,14.553,1.6,23.2,1.6,1.682,0,3.292-.044,4.759-.148A223.979,223.979,0,0,0,95.431,60.2v2.54A1.555,1.555,0,0,0,96.987,64.3H117.67a1.555,1.555,0,0,0,1.555-1.555V21.984a1.555,1.555,0,0,0-1.558-1.553ZM65.425,61.63a186.26,186.26,0,0,1-27.4-1.446c-.645-.07-1.094-.122-1.3-.14-1.968-.176-11.287-4.57-18.092-7.777-3.559-1.675-6.955-3.279-9.516-4.407a2.693,2.693,0,0,1,2.04-4.98l25.594,8.513a1.973,1.973,0,0,0,.565.078l21.972-1.037a1.555,1.555,0,0,0,1.457-1.265c.283-1.5,5.247-3.147,9.659-3.743a13.057,13.057,0,0,1,3.321,4.018,1.555,1.555,0,0,0,2.839-1.27,16.072,16.072,0,0,0-5.413-6.082c-2.009-1.929-8.352-4.643-28.38-3.86-5.1.187-8.308-1.247-8.456-3.87a2.527,2.527,0,0,1,1.068-2.442A91.091,91.091,0,0,0,58.32,29.211c7.608-2.074,12.7-1.491,21.985-.43l2.769.316a38.48,38.48,0,0,1,12.355,2.66V57.008a221.785,221.785,0,0,1-30,4.622Zm50.69-.441H98.539V23.539h17.576Z" transform="translate(590 3553.858)"/><circle class="b" cx="2.997" cy="2.997" r="2.997" transform="translate(690.183 3607.022)"/><path class="b" d="M12.131,35.554a6.652,6.652,0,0,0,6.644-6.647c0-3.178-4.505-9.234-5.41-10.413a1.555,1.555,0,0,0-2.47,0c-.9,1.179-5.413,7.232-5.413,10.413A6.654,6.654,0,0,0,12.131,35.554Zm0-13.48A19.94,19.94,0,0,1,15.667,28.9a3.538,3.538,0,1,1-7.074,0,19.911,19.911,0,0,1,3.538-6.826Z" transform="translate(591.627 3549.802)"/><path class="b" d="M14.41,28.688a6.654,6.654,0,0,0,6.647-6.639c0-3.181-4.508-9.231-5.413-10.411a1.61,1.61,0,0,0-2.47,0c-.9,1.172-5.413,7.222-5.413,10.411A6.654,6.654,0,0,0,14.41,28.688Zm0-13.48a20.088,20.088,0,0,1,3.538,6.841,3.538,3.538,0,1,1-7.077,0,19.935,19.935,0,0,1,3.536-6.831Z" transform="translate(595.256 3538.939)"/></g></svg>