<svg xmlns="http://www.w3.org/2000/svg" width="299.845" height="46" viewBox="0 0 299.845 46"><defs><style>.a{fill:#0a1e40;}</style></defs><g transform="translate(-62.916 -221.414)"><g transform="translate(62.916 221.414)"><path class="a" d="M86.312,267.414a25.177,25.177,0,0,1-9.53-1.756,21.563,21.563,0,0,1-12.185-12.2,25.212,25.212,0,0,1,0-18.109,21.762,21.762,0,0,1,4.772-7.311,22.147,22.147,0,0,1,7.411-4.862,25.166,25.166,0,0,1,9.53-1.757,24.856,24.856,0,0,1,9.52,1.774,22.165,22.165,0,0,1,7.379,4.877,21.855,21.855,0,0,1,4.756,7.308,25.134,25.134,0,0,1,0,18.08,21.544,21.544,0,0,1-12.14,12.2A25.056,25.056,0,0,1,86.312,267.414Zm0-43.586a22.778,22.778,0,0,0-8.62,1.579,19.747,19.747,0,0,0-6.611,4.329,19.353,19.353,0,0,0-4.243,6.507,22.8,22.8,0,0,0,0,16.313,19.15,19.15,0,0,0,10.854,10.866,24.283,24.283,0,0,0,17.223,0,19.143,19.143,0,0,0,10.811-10.866,22.73,22.73,0,0,0,0-16.286,19.469,19.469,0,0,0-4.231-6.507,19.785,19.785,0,0,0-6.584-4.345A22.467,22.467,0,0,0,86.312,223.828Zm0,35.391a14.576,14.576,0,0,1-5.568-1.013,11.227,11.227,0,0,1-4.225-3,13.288,13.288,0,0,1-2.6-4.711,21.472,21.472,0,0,1,0-12.159,13.3,13.3,0,0,1,2.6-4.712,11.378,11.378,0,0,1,4.218-3.012,14.413,14.413,0,0,1,5.574-1.03,14.218,14.218,0,0,1,5.532,1.031,11.411,11.411,0,0,1,4.2,3.012,13.309,13.309,0,0,1,2.6,4.712,21.472,21.472,0,0,1,0,12.159,13.3,13.3,0,0,1-2.6,4.712,11.269,11.269,0,0,1-4.208,3A14.382,14.382,0,0,1,86.312,259.218Zm0-27.224a12.025,12.025,0,0,0-4.643.843,8.975,8.975,0,0,0-3.332,2.374,10.9,10.9,0,0,0-2.118,3.866,19.085,19.085,0,0,0,0,10.672,10.916,10.916,0,0,0,2.117,3.865,8.848,8.848,0,0,0,3.327,2.358,12.188,12.188,0,0,0,4.649.831,12,12,0,0,0,4.6-.83,8.869,8.869,0,0,0,3.315-2.358,10.911,10.911,0,0,0,2.116-3.866,19.065,19.065,0,0,0,0-10.672,10.922,10.922,0,0,0-2.116-3.866,9.013,9.013,0,0,0-3.321-2.376A11.829,11.829,0,0,0,86.312,231.994Z" transform="translate(-62.916 -221.414)"/></g><g transform="translate(116.579 222.621)"><path class="a" d="M160.729,255a1.99,1.99,0,0,1,.7.131,1.92,1.92,0,0,1,.673.454l3.923,4.128a16.288,16.288,0,0,1-6.455,5.079A22.587,22.587,0,0,1,150.4,266.5a21.85,21.85,0,0,1-8.708-1.653,18.841,18.841,0,0,1-6.528-4.567,20.1,20.1,0,0,1-4.112-6.908,25.5,25.5,0,0,1-1.435-8.679,22.891,22.891,0,0,1,1.639-8.768,20.45,20.45,0,0,1,4.581-6.894,20.666,20.666,0,0,1,7.04-4.507,24.538,24.538,0,0,1,9.045-1.61,23.025,23.025,0,0,1,4.523.424,22.1,22.1,0,0,1,3.967,1.171,18.6,18.6,0,0,1,3.4,1.786,16.4,16.4,0,0,1,2.752,2.3l-3.337,4.479a4.259,4.259,0,0,1-.76.746,1.975,1.975,0,0,1-1.229.337,2.188,2.188,0,0,1-1-.234,10.745,10.745,0,0,1-.994-.571q-.527-.336-1.156-.731a8.941,8.941,0,0,0-1.493-.732,12.446,12.446,0,0,0-2.02-.57,13.794,13.794,0,0,0-2.708-.234,12.371,12.371,0,0,0-4.918.952,10.794,10.794,0,0,0-3.82,2.721,12.64,12.64,0,0,0-2.488,4.288,16.826,16.826,0,0,0-.893,5.651,17.555,17.555,0,0,0,.893,5.825,12.765,12.765,0,0,0,2.43,4.288,10.28,10.28,0,0,0,3.586,2.649,10.714,10.714,0,0,0,4.391.908,21.048,21.048,0,0,0,2.459-.132,10.092,10.092,0,0,0,2.064-.453,9.6,9.6,0,0,0,1.815-.834,12.1,12.1,0,0,0,1.741-1.274,3.478,3.478,0,0,1,.761-.483A2,2,0,0,1,160.729,255Z" transform="translate(-129.612 -222.914)"/></g><g transform="translate(160.897 222.621)"><path class="a" d="M215.812,255a1.99,1.99,0,0,1,.7.131,1.92,1.92,0,0,1,.673.454l3.922,4.128a16.286,16.286,0,0,1-6.454,5.079,22.59,22.59,0,0,1-9.177,1.712,21.854,21.854,0,0,1-8.709-1.653,18.837,18.837,0,0,1-6.528-4.567,20.116,20.116,0,0,1-4.113-6.908,25.518,25.518,0,0,1-1.435-8.679,22.876,22.876,0,0,1,1.64-8.768,20.438,20.438,0,0,1,4.581-6.894,20.658,20.658,0,0,1,7.04-4.507,24.53,24.53,0,0,1,9.044-1.61,23.033,23.033,0,0,1,4.523.424,22.093,22.093,0,0,1,3.966,1.171,18.584,18.584,0,0,1,3.4,1.786,16.434,16.434,0,0,1,2.752,2.3l-3.337,4.479a4.237,4.237,0,0,1-.761.746,1.975,1.975,0,0,1-1.229.337,2.187,2.187,0,0,1-1-.234,10.856,10.856,0,0,1-1-.571q-.526-.336-1.156-.731a8.93,8.93,0,0,0-1.493-.732,12.433,12.433,0,0,0-2.02-.57,13.785,13.785,0,0,0-2.707-.234,12.368,12.368,0,0,0-4.918.952,10.787,10.787,0,0,0-3.82,2.721,12.64,12.64,0,0,0-2.488,4.288,16.805,16.805,0,0,0-.893,5.651,17.534,17.534,0,0,0,.893,5.825,12.778,12.778,0,0,0,2.429,4.288,10.3,10.3,0,0,0,3.586,2.649,10.714,10.714,0,0,0,4.391.908,21.048,21.048,0,0,0,2.459-.132,10.068,10.068,0,0,0,2.064-.453,9.6,9.6,0,0,0,1.815-.834,12.1,12.1,0,0,0,1.742-1.274,3.492,3.492,0,0,1,.76-.483A2.006,2.006,0,0,1,215.812,255Z" transform="translate(-184.694 -222.914)"/></g><g transform="translate(208.553 223.089)"><path class="a" d="M253.877,266.146h-9.953V223.5h9.953Z" transform="translate(-243.924 -223.496)"/></g><g transform="translate(232.264 223.089)"><path class="a" d="M273.394,266.146V223.5h15.69a29.838,29.838,0,0,1,7.522.819,14.35,14.35,0,0,1,5.064,2.312,8.767,8.767,0,0,1,2.855,3.63,12.273,12.273,0,0,1,.892,4.771,9.362,9.362,0,0,1-.41,2.766,8.145,8.145,0,0,1-1.288,2.5,9.576,9.576,0,0,1-2.254,2.123,14.493,14.493,0,0,1-3.307,1.654,11.743,11.743,0,0,1,6.235,3.323,8.6,8.6,0,0,1,2.02,5.9,12.187,12.187,0,0,1-1.055,5.064,11.593,11.593,0,0,1-3.088,4.083,14.651,14.651,0,0,1-5.02,2.723,21.852,21.852,0,0,1-6.821.98Zm9.893-24.707h5.153a16.912,16.912,0,0,0,2.957-.234,6.145,6.145,0,0,0,2.239-.819,3.771,3.771,0,0,0,1.4-1.61,6.04,6.04,0,0,0,.483-2.576,7.255,7.255,0,0,0-.381-2.533,3.628,3.628,0,0,0-1.171-1.624,4.929,4.929,0,0,0-2.005-.878,13.731,13.731,0,0,0-2.883-.264h-5.8Zm0,6.616v10.626h6.968a8.742,8.742,0,0,0,3.2-.5,5.061,5.061,0,0,0,1.947-1.289,4.323,4.323,0,0,0,.966-1.785,7.842,7.842,0,0,0,.263-2.02,6.731,6.731,0,0,0-.307-2.107,3.482,3.482,0,0,0-1.053-1.581,5.157,5.157,0,0,0-1.976-1,11.521,11.521,0,0,0-3.1-.352Z" transform="translate(-273.394 -223.496)"/></g><g transform="translate(273.069 223.089)"><path class="a" d="M367.257,266.146h-7.669a3.543,3.543,0,0,1-2.122-.6,3.1,3.1,0,0,1-1.156-1.537l-2.518-7.434H337.575l-2.518,7.434a3.389,3.389,0,0,1-3.22,2.137h-7.728l16.509-42.65h10.129Zm-27.4-16.3h11.65l-3.922-11.68q-.38-1.113-.892-2.621t-1.01-3.263q-.469,1.786-.966,3.308t-.936,2.634Z" transform="translate(-324.109 -223.496)"/></g><g transform="translate(325.527 223.089)"><path class="a" d="M395.6,223.554a2.786,2.786,0,0,1,.789.22,2.651,2.651,0,0,1,.673.454,7.682,7.682,0,0,1,.732.79l20.256,25.614q-.116-1.229-.175-2.386t-.059-2.18V223.5h8.723v42.65h-5.152a4.748,4.748,0,0,1-1.932-.351,4.124,4.124,0,0,1-1.522-1.288L397.825,239.1q.087,1.113.146,2.18t.059,2.005v22.862h-8.723V223.5h5.21A8.505,8.505,0,0,1,395.6,223.554Z" transform="translate(-389.307 -223.496)"/></g></g></svg>