<svg xmlns="http://www.w3.org/2000/svg" width="120.666" height="136.831" viewBox="0 0 120.666 136.831"><defs><style>.a{fill:#0d1e3d;}</style></defs><g transform="translate(-5.56 -1.75)"><g transform="translate(5.56 1.75)"><path class="a" d="M98.684,27.575l3.014-5.222,2.889,1.668a1.061,1.061,0,0,0,1.061-1.838l-7.616-4.4a1.061,1.061,0,0,0-1.061,1.838l2.888,1.668-2.977,5.156a59.818,59.818,0,0,0-26.643-8.371V11.636h5.6A1.06,1.06,0,0,0,76.9,10.575V2.811A1.06,1.06,0,0,0,75.842,1.75h-20a1.06,1.06,0,0,0-1.061,1.061v7.765a1.06,1.06,0,0,0,1.061,1.061h5.6v6.444a59.929,59.929,0,0,0-26.531,8.381l-2.984-5.169,2.889-1.668a1.061,1.061,0,0,0-1.061-1.838l-7.616,4.4A1.061,1.061,0,1,0,27.2,24.022l2.889-1.668,3.023,5.236a60.318,60.318,0,1,0,65.575-.015ZM56.9,3.871H74.782V9.515H56.9V3.871ZM68.12,11.636v6.329c-1.518-.069-3.042-.065-4.561,0V11.636Zm-2.227,122.7a56.1,56.1,0,1,1,56.09-56.112A56.165,56.165,0,0,1,65.893,134.338Z" transform="translate(-5.56 -1.75)"/></g><g transform="translate(19.093 31.438)"><path class="a" d="M58.738,15.745a46.8,46.8,0,1,0,46.8,46.8A46.852,46.852,0,0,0,58.738,15.745Zm0,91.477a44.678,44.678,0,1,1,44.677-44.678A44.728,44.728,0,0,1,58.738,107.221Z" transform="translate(-11.939 -15.745)"/></g><g transform="translate(64.831 33.928)"><path class="a" d="M34.56,23.1a1.06,1.06,0,0,0,1.061-1.061V17.979a1.061,1.061,0,1,0-2.121,0V22.04A1.06,1.06,0,0,0,34.56,23.1Z" transform="translate(-33.5 -16.918)"/></g><g transform="translate(43.206 39.721)"><path class="a" d="M25.286,20.18a1.061,1.061,0,1,0-1.838,1.061l2.031,3.518A1.061,1.061,0,0,0,27.317,23.7Z" transform="translate(-23.306 -19.649)"/></g><g transform="translate(27.376 55.55)"><path class="a" d="M20.953,29.285l-3.518-2.031a1.061,1.061,0,1,0-1.061,1.838l3.518,2.031a1.061,1.061,0,0,0,1.061-1.838Z" transform="translate(-15.844 -27.111)"/></g><g transform="translate(21.582 77.176)"><path class="a" d="M19.3,38.365A1.06,1.06,0,0,0,18.235,37.3H14.173a1.061,1.061,0,1,0,0,2.121h4.062A1.06,1.06,0,0,0,19.3,38.365Z" transform="translate(-13.113 -37.305)"/></g><g transform="translate(27.376 96.769)"><path class="a" d="M19.892,46.684l-3.518,2.031a1.061,1.061,0,1,0,1.061,1.838l3.518-2.031a1.061,1.061,0,1,0-1.061-1.838Z" transform="translate(-15.844 -46.54)"/></g><g transform="translate(43.206 111.113)"><path class="a" d="M26.928,53.445a1.059,1.059,0,0,0-1.449.388l-2.031,3.518a1.061,1.061,0,1,0,1.838,1.061l2.031-3.518A1.061,1.061,0,0,0,26.928,53.445Z" transform="translate(-23.306 -53.302)"/></g><g transform="translate(64.831 116.364)"><path class="a" d="M34.56,55.777A1.06,1.06,0,0,0,33.5,56.838V60.9a1.061,1.061,0,1,0,2.121,0V56.838A1.06,1.06,0,0,0,34.56,55.777Z" transform="translate(-33.5 -55.777)"/></g><g transform="translate(84.425 111.113)"><path class="a" d="M44.715,53.833a1.061,1.061,0,0,0-1.838,1.061l2.031,3.518a1.061,1.061,0,1,0,1.838-1.061Z" transform="translate(-42.736 -53.302)"/></g><g transform="translate(98.768 96.769)"><path class="a" d="M54.606,48.715l-3.518-2.031a1.061,1.061,0,0,0-1.061,1.838l3.518,2.031a1.061,1.061,0,1,0,1.061-1.838Z" transform="translate(-49.497 -46.54)"/></g><g transform="translate(104.018 77.176)"><path class="a" d="M57.094,37.3H53.032a1.061,1.061,0,1,0,0,2.121h4.062a1.061,1.061,0,1,0,0-2.121Z" transform="translate(-51.972 -37.305)"/></g><g transform="translate(98.768 55.55)"><path class="a" d="M51.088,31.123l3.518-2.031a1.061,1.061,0,1,0-1.061-1.838l-3.518,2.031a1.061,1.061,0,0,0,1.061,1.838Z" transform="translate(-49.497 -27.111)"/></g><g transform="translate(84.425 39.722)"><path class="a" d="M46.358,19.792a1.061,1.061,0,0,0-1.449.388L42.878,23.7a1.061,1.061,0,0,0,1.838,1.061l2.031-3.518A1.061,1.061,0,0,0,46.358,19.792Z" transform="translate(-42.736 -19.649)"/></g><g transform="translate(58.023 53.957)"><path class="a" d="M53.677,26.521a1.06,1.06,0,0,0-1.461.339L41.437,44.151a7.21,7.21,0,0,0-3.277-.813,7.276,7.276,0,0,0-4.383,13.1l-3.326,5.336a1.061,1.061,0,0,0,1.8,1.123l3.387-5.435a7.226,7.226,0,0,0,2.521.476,7.283,7.283,0,0,0,5.021-12.576L54.017,27.982A1.061,1.061,0,0,0,53.677,26.521ZM43.339,50.639a5.18,5.18,0,1,1-5.18-5.179A5.185,5.185,0,0,1,43.339,50.639Z" transform="translate(-30.29 -26.36)"/></g><g transform="translate(50.656 95.779)"><path class="a" d="M53.886,46.074H30.221a3.408,3.408,0,0,0-3.4,3.4v3.357a3.408,3.408,0,0,0,3.4,3.4H53.886a3.408,3.408,0,0,0,3.4-3.4V49.479A3.409,3.409,0,0,0,53.886,46.074Zm1.283,6.762a1.284,1.284,0,0,1-1.283,1.282H30.221a1.284,1.284,0,0,1-1.282-1.282V49.479A1.285,1.285,0,0,1,30.221,48.2H53.886a1.285,1.285,0,0,1,1.283,1.283Z" transform="translate(-26.817 -46.074)"/></g></g></svg>