<svg xmlns="http://www.w3.org/2000/svg" width="149.318" height="163.822" viewBox="0 0 149.318 163.822"><defs><style>.a{fill:#0d1e3d;}</style></defs><path class="a" d="M154.3,133.053c-1.3-1.3-29.38-28.45-46.116-29.752a56.11,56.11,0,0,0,3.533-18.967c0-28.636-49.463-79.773-51.508-81.818L59.1,1.4l-1.3,1.116C55.563,4.561,6.1,55.7,6.1,84.334,6.1,113.9,30.274,139,58.91,139a48.54,48.54,0,0,0,16.178-2.789c1.116,15.806,15.248,29.008,31.8,29.008S153,136.772,154.3,135.47l1.116-1.116ZM9.447,84.334c0-24.917,41.839-70.289,49.463-78.285,7.624,8,49.463,53.368,49.463,78.285a53.448,53.448,0,0,1-3.533,18.781,31.968,31.968,0,0,0-28.264,21.942c0,.186-.186.372-.186.558-.186.558-.372,1.3-.558,1.86a9.334,9.334,0,0,0-.372,2.231h0c-.186.93-.186,1.86-.372,2.789a44.868,44.868,0,0,1-14.5,2.975V118.177L90.336,88.425,88.1,86.193,60.583,113.714V70.76l11.9-11.9-2.231-2.231-9.483,9.483V24.644H57.422V66.111l-9.669-9.669-2.231,2.231,11.9,11.9v43.141L29.9,86.379,27.67,88.611l29.752,29.752v17.293C31.2,134.727,9.447,111.669,9.447,84.334Zm97.438,77.541c-15.248,0-28.079-12.087-28.636-26.591h8.74l16.736,16.736,2.231-2.231-14.5-14.5h22.686l6.508,6.508,2.231-2.231-4.277-4.277h22.128v-3.347H118.972l4.277-4.277-2.231-2.231-6.508,6.508H91.823l14.5-14.5L104.1,115.2,87.36,131.937H78.435c.186-1.3.372-2.789.558-4.091a29,29,0,0,1,27.893-21.2c13.574,0,38.12,22.314,43.884,27.707C145.005,139.561,120.46,161.875,106.885,161.875Z" transform="translate(-6.1 -1.4)"/></svg>