<svg xmlns="http://www.w3.org/2000/svg" xmlns:xlink="http://www.w3.org/1999/xlink" width="100" height="100" viewBox="0 0 100 100"><defs><style>.a{fill:rgba(233,193,194,0.31);}.b{clip-path:url(#a);}</style><clipPath id="a"><rect class="a" width="100" height="100" transform="translate(0.09 -0.237)"/></clipPath></defs><g class="b" transform="translate(-0.09 0.237)"><g transform="translate(-0.082 -0.122)"><path d="M67.723,17.833a50.09,50.09,0,0,0,0,100.18,49.4,49.4,0,0,0,29.247-9.505l-1.952-2.7a46.037,46.037,0,0,1-25.632,8.806v-4.946H66.06v4.967a46.279,46.279,0,0,1-30.043-12.514l3.484-3.5-2.351-2.361-3.484,3.5A46.672,46.672,0,0,1,21.2,69.593h6.61V66.254H21.2A46.655,46.655,0,0,1,33.665,36.089l4.66,4.678,2.351-2.361-4.66-4.678A46.3,46.3,0,0,1,66.06,21.214v6.637h3.326V21.214A46.278,46.278,0,0,1,99.429,33.729l-4.66,4.678,2.351,2.361,4.66-4.678a46.669,46.669,0,0,1,12.464,30.164h-6.61v3.339h6.585a46.325,46.325,0,0,1-8.636,25.491l-2.107-2.115-2.494,10.018,9.978-2.5-2.993-3.005A50.092,50.092,0,0,0,67.723,17.833Z" transform="translate(-17.833 -17.833)"/><path d="M172.458,144.3a6.662,6.662,0,0,0,3.238-12.479,8.047,8.047,0,0,0,.088-.878,8.292,8.292,0,0,0-15.8-3.585,8.25,8.25,0,0,1,.828,3.585,8.346,8.346,0,0,1-4.9,7.59,6.642,6.642,0,0,0,6.56,5.767h3.326v9.035a26.438,26.438,0,0,0-16.63-7.281v-8.432H152.5a6.662,6.662,0,0,0,3.238-12.479,8.056,8.056,0,0,0,.088-.878,8.315,8.315,0,1,0-16.63,0,8.048,8.048,0,0,0,.088.878,6.662,6.662,0,0,0,3.238,12.479h3.326v8.433a26.437,26.437,0,0,0-16.63,7.281V144.3h3.326a6.642,6.642,0,0,0,6.56-5.767,8.346,8.346,0,0,1-4.9-7.59,8.244,8.244,0,0,1,.828-3.583,8.291,8.291,0,0,0-15.795,3.583,8.051,8.051,0,0,0,.088.878,6.662,6.662,0,0,0,3.238,12.479h3.326v12.87a26.614,26.614,0,0,0-4.989,15.514,1.666,1.666,0,0,0,1.663,1.67h49.889a1.666,1.666,0,0,0,1.663-1.67,26.614,26.614,0,0,0-4.989-15.514V144.3Zm-9.978,18.366-4.989-5.009-4.989,1.67v6.679l4.989,5.009h-33.2a23.3,23.3,0,0,1,.931-5.009h5.662l1.663-3.339h4.989l4.989-3.339v-3.339l-3.72-4.981a23.182,23.182,0,0,1,29.024,10.317Z" transform="translate(-97.624 -97.55)"/></g></g></svg>