<svg xmlns="http://www.w3.org/2000/svg" width="139.202" height="139.1" viewBox="0 0 139.202 139.1"><defs><style>.a{fill:#0d1e3d;}</style></defs><g transform="translate(-3.505 -3.56)"><g transform="translate(27.128 18.337)"><path class="a" d="M72.707,119.358H45.556a10.67,10.67,0,0,1-10.645-10.67v-1.294a16.627,16.627,0,0,1-10.89-15.626V84.834a28.916,28.916,0,0,1-2.442-3.247,45.894,45.894,0,1,1,81.5-39.969,46.659,46.659,0,0,1,2.027,13.575,45.9,45.9,0,0,1-8.375,26.394,2.384,2.384,0,1,1-3.955-2.661,41.206,41.206,0,1,0-67.267-.146,35.844,35.844,0,0,0,2.783,3.565l.61.684v8.741a11.769,11.769,0,0,0,9.034,11.573l1.856.439v5.03a5.787,5.787,0,0,0,5.762,5.787H72.707a5.787,5.787,0,0,0,5.762-5.787v-3.028a2.442,2.442,0,1,1,4.883,0v2.906a10.67,10.67,0,0,1-10.646,10.67Z" transform="translate(-13.18 -9.612)"/><path class="a" d="M39.905,50.427a2.442,2.442,0,0,1-2.442-2.442v-.952h-.952a2.442,2.442,0,0,1,0-4.883h5.835v5.835A2.442,2.442,0,0,1,39.905,50.427Z" transform="translate(16.935 37.296)"/><path class="a" d="M45.221,39.9h-.2a18.361,18.361,0,0,1-6.885-1.587,2.449,2.449,0,0,1,1.953-4.493,13.332,13.332,0,0,0,4.883,1.2,7.813,7.813,0,0,0,4.395-1.148,2.442,2.442,0,1,1,2.442,4.151A12.892,12.892,0,0,1,45.221,39.9Z" transform="translate(20.679 24.531)"/><path class="a" d="M31.76,51.742a12.892,12.892,0,0,1-6.91-1.929,13.234,13.234,0,0,1-6.519-11.207A13.25,13.25,0,0,1,31.418,25.08a20.583,20.583,0,0,1,12.477,4.59,11.231,11.231,0,0,1,4.712,8.5c0,5.713-5.274,10.035-9.889,11.988a18.141,18.141,0,0,1-6.861,1.587Zm0-21.779h-.146a8.448,8.448,0,0,0-7.007,3.931,8.619,8.619,0,0,0-1.27,4.688,8.2,8.2,0,0,0,4.126,7.081,7.691,7.691,0,0,0,4.444,1.2,13.331,13.331,0,0,0,5.005-1.2c4.126-1.734,6.959-4.883,6.934-7.447h0a6.91,6.91,0,0,0-2.906-4.883,15.919,15.919,0,0,0-9.2-3.418Z" transform="translate(-5.757 12.687)"/><path class="a" d="M50.12,51.742h-.2a18.361,18.361,0,0,1-6.885-1.587C38.449,48.2,33.1,43.88,33.272,38.143a11.256,11.256,0,0,1,4.737-8.5A20.607,20.607,0,0,1,50.486,25.08,13.282,13.282,0,0,1,61.5,31.257a13.453,13.453,0,0,1,2.051,7.325h0A13.307,13.307,0,0,1,56.98,49.838,13.063,13.063,0,0,1,50.12,51.742Zm0-21.779a15.773,15.773,0,0,0-9.156,3.492,6.861,6.861,0,0,0-2.93,4.883c0,2.637,2.808,5.713,6.91,7.447a13.551,13.551,0,0,0,5.03,1.2,7.813,7.813,0,0,0,4.395-1.148,8.3,8.3,0,0,0,4.175-7.13,8.57,8.57,0,0,0-1.294-4.712,8.4,8.4,0,0,0-6.983-3.907Zm10.865,8.643Z" transform="translate(15.78 12.687)"/><path class="a" d="M62.294,47.033H26.012a2.442,2.442,0,1,1,0-4.883H62.294a2.442,2.442,0,0,1,0,4.883Z" transform="translate(1.798 37.296)"/><path class="a" d="M28.982,58.663a2.442,2.442,0,0,1-2.442-2.442V41.572a2.442,2.442,0,1,1,4.883,0v14.65A2.442,2.442,0,0,1,28.982,58.663Z" transform="translate(6.08 32.942)"/><path class="a" d="M33.442,58.663A2.442,2.442,0,0,1,31,56.221V41.572a2.442,2.442,0,0,1,4.883,0v14.65A2.442,2.442,0,0,1,33.442,58.663Z" transform="translate(12.51 32.942)"/><path class="a" d="M37.9,58.663a2.442,2.442,0,0,1-2.442-2.442V41.572a2.442,2.442,0,0,1,4.883,0v14.65A2.442,2.442,0,0,1,37.9,58.663Z" transform="translate(18.939 32.942)"/></g><g transform="translate(3.505 3.56)"><path class="a" d="M39.905,50.427a2.442,2.442,0,0,1-2.442-2.442v-.952h-.952a2.442,2.442,0,0,1,0-4.883h5.835v5.835A2.442,2.442,0,0,1,39.905,50.427Z" transform="translate(40.559 52.073)"/><path class="a" d="M45.221,39.9h-.2a18.361,18.361,0,0,1-6.885-1.587,2.449,2.449,0,0,1,1.953-4.493,13.332,13.332,0,0,0,4.883,1.2,7.813,7.813,0,0,0,4.395-1.148,2.442,2.442,0,1,1,2.442,4.151A12.892,12.892,0,0,1,45.221,39.9Z" transform="translate(44.302 39.309)"/><path class="a" d="M31.425,53.467a2.442,2.442,0,0,1-1.734-.708l-5.445-5.542a14.821,14.821,0,1,1-5.347-28.4,14.8,14.8,0,1,1,28.4,5.347l2.442,2.442a2.442,2.442,0,1,1-3.516,3.369L44.512,28.27l-.439.439h0L40.63,25.267h0a9.962,9.962,0,1,0-16.383-4.2l1.221,4.248-4.322-1.148A9.937,9.937,0,1,0,25.37,40.7l3.443,3.443-.464.464,4.883,4.883a2.272,2.272,0,0,1-1.807,3.98Z" transform="translate(-3.505 -3.56)"/><path class="a" d="M59.99,94.44a14.65,14.65,0,0,1-13.6-20.583l-6.47-6.47v-2.93l1.856-.635A11.769,11.769,0,0,0,50.81,52.371V43.63l.61-.684c1.05-1.221,1.978-2.442,2.832-3.565l1.66-2.442L69.561,50.589a14.8,14.8,0,0,1,16.261,24.1h0a14.869,14.869,0,0,1-11.061,4.248,14.65,14.65,0,0,1-14.65,15.382ZM46.634,67.192l5.689,5.787-.952,1.636a9.937,9.937,0,0,0,15.6,12.062,10.059,10.059,0,0,0,2.442-9.767l-1.221-4.248,4.248,1.221a9.907,9.907,0,1,0-2.3-18.019l-1.465.757L56.474,44.411l-.781.952v6.91a16.6,16.6,0,0,1-9.058,14.918Zm37.43,5.884Z" transform="translate(48.992 44.562)"/></g><g transform="translate(3.648 3.668)"><path class="a" d="M60.3,53.4a2.442,2.442,0,0,1-1.734-4.175L66.743,41.2l1.636.952a9.937,9.937,0,0,0,12.062-15.6A10.06,10.06,0,0,0,70.674,24.1l-4.248,1.221,1.221-4.248a9.907,9.907,0,1,0-18.019,2.3l.952,1.636L45.5,29.915a2.453,2.453,0,0,1-3.565-3.369L44.377,24.1a14.8,14.8,0,1,1,28.445-5.347,14.8,14.8,0,1,1-5.2,28.372L62.03,52.744A2.442,2.442,0,0,1,60.3,53.4Z" transform="translate(50.789 -3.604)"/><path class="a" d="M33.587,93.63a14.65,14.65,0,0,1-14.65-15.407,14.8,14.8,0,1,1,5.225-28.4l11.622-11.6A2.443,2.443,0,1,1,39.227,41.7L28.386,52.513l.464.464-3.443,3.443a9.962,9.962,0,1,0-4.346,16.457l4.248-1.221-1.148,4.322a9.937,9.937,0,1,0,16.53-4.224l3.443-3.443.464.464,4.883-4.883a2.442,2.442,0,0,1,3.443,3.443l-5.738,5.738A14.821,14.821,0,0,1,33.563,93.7Z" transform="translate(-3.563 45.289)"/></g></g></svg>