<svg xmlns="http://www.w3.org/2000/svg" width="147.626" height="121.265" viewBox="0 0 147.626 121.265"><defs><style>.a{fill:#0d1e3d;}</style></defs><g transform="translate(-1.058 -282.448)"><path class="a" d="M25.843,282.448A18.489,18.489,0,0,0,7.6,298.265H4.753a2.636,2.636,0,1,0,0,5.272h5.272a15.857,15.857,0,0,0,15.817,15.817H39.024a2.652,2.652,0,0,0,2.636-2.636V303.537h5.272a2.636,2.636,0,0,0,0-5.272H44.085A18.489,18.489,0,0,0,25.843,282.448Zm0,5.272a14.132,14.132,0,0,1,13.423,10.545H12.914A13.56,13.56,0,0,1,25.843,287.72ZM15.3,303.537H36.387v10.545H25.843A10.505,10.505,0,0,1,15.3,303.537Z" transform="translate(9.486 0)"/><path class="a" d="M8.967,286.682a7.95,7.95,0,0,0-7.909,7.909V336.77a7.95,7.95,0,0,0,7.909,7.909h.011c6.8,12.57,19.56,21.09,34.26,21.09,24.4,0,39.1-21.852,39.543-39.543a2.6,2.6,0,0,0-2.636-2.636,2.694,2.694,0,0,0-2.636,2.636c-1.084,17.461-13.315,31.237-29,33.8V322.585l12.007,5.993a2.287,2.287,0,0,0,1.174.283,2.536,2.536,0,0,0,1.57-.52l21.095-15.817a2.49,2.49,0,0,0,1.061-2.116,2.644,2.644,0,0,0-2.636-2.636,2.374,2.374,0,0,0-.33.02L62.9,310.222c-2.063-2.381-5.123-7.478-8.583-12.511a45.077,45.077,0,0,0-6.014-7.358c-2.182-2.044-4.7-3.672-7.7-3.672H32.693c-2.7,0-4.885,1.544-6.513,3.723a7.914,7.914,0,0,0-6.668-3.723Zm0,5.272H19.512a2.575,2.575,0,0,1,2.636,2.636v42.179a2.574,2.574,0,0,1-2.636,2.636H8.967a2.574,2.574,0,0,1-2.636-2.636V294.59a2.575,2.575,0,0,1,2.636-2.636Zm23.726,0c2.754,0,5.555-.005,7.909,0,.953,0,2.409.673,4.1,2.255a41.228,41.228,0,0,1,5.272,6.482c3.524,5.126,6.587,10.964,9.844,14.221a2.3,2.3,0,0,0,1.874.767l.324-.03,11.25-1.4-11.853,8.892-14.36-7.177a2.336,2.336,0,0,0-1.179-.283,2.645,2.645,0,0,0-2.636,2.636V360.5a32.327,32.327,0,0,1-15.822-4.124V336.8c0-.01.005-.02.005-.03V305.132a23.322,23.322,0,0,1,2.039-10.009c1.189-2.377,2.458-3.167,3.233-3.167Zm-10.545,52.23v8.532a35.877,35.877,0,0,1-7.059-8.038h4.423A7.733,7.733,0,0,0,22.148,344.184Z" transform="translate(0 37.945)"/><path class="a" d="M15.327,291.17a2.636,2.636,0,1,1-2.636-2.636A2.636,2.636,0,0,1,15.327,291.17Z" transform="translate(80.634 54.546)"/><path class="a" d="M52.21,284.273l-42.17,42.189a2.5,2.5,0,0,0-.78,1.859,2.644,2.644,0,0,0,2.636,2.636,2.507,2.507,0,0,0,1.86-.778l40.321-40.3,3.406,3.406a2.521,2.521,0,0,0,1.865.768,2.644,2.644,0,0,0,2.636-2.636,2.53,2.53,0,0,0-.764-1.868l-5.274-5.274a2.47,2.47,0,0,0-1.87-.767,2.782,2.782,0,0,0-1.866.767Z" transform="translate(73.519 9.487)"/><path class="a" d="M19.031,288.788a2.636,2.636,0,1,1-2.636-2.635,2.636,2.636,0,0,1,2.636,2.635Z" transform="translate(113.837 33.203)"/><path class="a" d="M20.089,288.788a2.636,2.636,0,1,1-2.636-2.636,2.636,2.636,0,0,1,2.636,2.636Z" transform="translate(123.323 33.202)"/><path class="a" d="M19.56,289.847a2.636,2.636,0,1,1-2.636-2.636A2.636,2.636,0,0,1,19.56,289.847Z" transform="translate(118.58 42.689)"/><path class="a" d="M18.5,289.847a2.636,2.636,0,1,1-2.636-2.636,2.636,2.636,0,0,1,2.636,2.636Z" transform="translate(109.094 42.689)"/><path class="a" d="M20.618,289.847a2.636,2.636,0,1,1-2.636-2.636A2.636,2.636,0,0,1,20.618,289.847Z" transform="translate(128.067 42.689)"/><path class="a" d="M19.56,287.73a2.636,2.636,0,1,1-2.636-2.636A2.636,2.636,0,0,1,19.56,287.73Z" transform="translate(118.58 23.716)"/></g></svg>