<svg xmlns="http://www.w3.org/2000/svg" width="127.985" height="145.066" viewBox="0 0 127.985 145.066"><defs><style>.a{fill:#0d1e3d;}</style></defs><g transform="translate(-1312.014 -1451.926)"><path class="a" d="M64.635,0C54.517,0,29.547.982,16.365,10.177,8.939,15.343-1.316,29.076,6.326,48.27A121.943,121.943,0,0,0,0,60.057l3.556,1.67c1.709-3.634,3.556-7.073,5.5-10.353a28.388,28.388,0,0,0,13.929,3.635c10.432,0,20.667-5.147,25.54-12.593a57.7,57.7,0,0,0,6.955-16.5A64.831,64.831,0,0,1,66.207,3.143ZM51.787,24.715a54.636,54.636,0,0,1-6.463,15.461c-6.09,9.155-22.3,14.361-34.184,7.858a97.6,97.6,0,0,1,6.483-8.88,24.753,24.753,0,0,0,4.892.511,18.114,18.114,0,0,0,9.823-2.633l-2.1-3.32a15.147,15.147,0,0,1-9.509,1.965A105.145,105.145,0,0,1,49.842,13.516l-1.847-3.477a117.876,117.876,0,0,0-20.9,13.949,13.045,13.045,0,0,1,3.615-8.9l-2.849-2.711a17.131,17.131,0,0,0-4.479,14.5l.589-.118A97.679,97.679,0,0,0,9,44.1,26.9,26.9,0,0,1,18.6,13.4c7.976-5.56,23.575-9.017,42.219-9.43a72.1,72.1,0,0,0-9.037,20.746Z" transform="translate(1330.637 1498.741) rotate(-45)"/><path class="a" d="M127.78,100.69a2,2,0,0,0-2.69-.87C112,106.54,76,124,67.29,124c-4.39,0-13.76-4.66-23.91-10.82a94.98,94.98,0,0,0,9.39-2.37A45.069,45.069,0,0,1,60.41,109a113.489,113.489,0,0,1,24.68,1.82,2,2,0,1,0,.79-3.92A116.319,116.319,0,0,0,60.21,105a46.39,46.39,0,0,0-8.55,2c-4.87,1.4-13.94,4-15.49,1.85a6.41,6.41,0,0,1-.92-6.15c1.44-3.77,6.35-6.79,13.83-8.48A88.25,88.25,0,0,1,61.9,92.27c2.63-.25,5.62-.53,9.64-1.07,1.43-.19,3-1.07,5.31-2.4a76.68,76.68,0,0,1,27.39-9.9c14.28-2.46,20.33.17,20.37.19a2,2,0,1,0,1.72-3.61c-.28-.13-7-3.23-22.77-.52A80.5,80.5,0,0,0,74.87,85.32,18.73,18.73,0,0,1,71,87.24c-4,.52-6.89.8-9.48,1.05-1.7.16-3.26.31-4.86.5a73.449,73.449,0,0,1-7.15-3.72c-7.65-4.27-13.31-7.29-16.37-7.29-2.46,0-4.17.67-5.07,2a3.35,3.35,0,0,0-.21.36c-2.7-1.66-5.6-3.39-8.48-4.83-6.91-3.45-14.07-1.84-17.19.09A4.35,4.35,0,0,0,.04,78.5a6.35,6.35,0,0,0,1.21,4.34A7.53,7.53,0,0,0,2,86c1.73,4,16,15.4,31.09,25.29a5.67,5.67,0,0,0,3,1.92C48.74,121.34,61.47,128,67.29,128c11.39,0,57.66-23.62,59.62-24.62a2,2,0,0,0,.87-2.69ZM47.58,88.56,50,89.89l-1.77.39-.78.19c-2.15-1-9.36-4.3-11.53-5.48-1.33-.72-2.89-1.67-4.56-2.7a2.67,2.67,0,0,1,1.82-.51C35.41,81.78,43,86,47.58,88.56ZM4.3,78.81c2.27-1.4,7.89-2.62,13.3.09,3.5,1.75,7.12,4,10.31,6,2.21,1.37,4.3,2.66,6.07,3.63,1.45.78,4.89,2.41,7.78,3.75a27.608,27.608,0,0,0-3.48,1.68c-7.1-3.85-11-6.39-13.84-8.26a44.94,44.94,0,0,0-9.74-5.22C10,78.63,6.42,78.14,4.12,79a1,1,0,0,1,.18-.19Zm27.21,22.43a10.32,10.32,0,0,0-.66,3.86C18.15,96.45,7,87.47,5.65,84.45a3.57,3.57,0,0,1-.4-1.59.64.64,0,0,1,0-.07c.31-.26,2.45-.73,8,1.4a41.14,41.14,0,0,1,9,4.84c2.68,1.76,6.27,4.1,12.49,7.53a12.71,12.71,0,0,0-3.23,4.68Z" transform="translate(1312 1468.992)"/></g></svg>