<svg xmlns="http://www.w3.org/2000/svg" width="57.932" height="53.974" viewBox="0 0 57.932 53.974"><defs><style>.a{fill:#5c4efe;}.b{fill:none;stroke:#1f2249;stroke-linecap:round;stroke-linejoin:round;stroke-miterlimit:10;stroke-width:2px;}</style></defs><g transform="translate(-7.078 -6.977)"><path class="a" d="M17.129,59.738l-1.068-25,.021-6.944L36.149,8.11,55.981,27.92l0,15.438-.939,8.66-.115,7.72-13.135-.576.028-17.535H30.225l-.076,17.535Z"/><path class="b" d="M41.99,59.951H53.982a1,1,0,0,0,1-1V34.013"/><path class="b" d="M17.058,34.013V58.951a1,1,0,0,0,1,1H30.193"/><path class="b" d="M8.493,35.595,36.015,7.977,63.6,35.347"/><path class="b" d="M41.815,59.933V41.627H30.225V59.933"/></g></svg>