<svg xmlns="http://www.w3.org/2000/svg" width="32" height="30" viewBox="0 0 32 30"><defs><style>.a{fill:#5c4efe;fill-rule:evenodd;}</style></defs><path class="a" d="M30.5,24H30V17.5A3.5,3.5,0,0,0,26.5,14H18V10h.5A1.5,1.5,0,0,0,20,8.5v-5A1.5,1.5,0,0,0,18.5,2h-5A1.5,1.5,0,0,0,12,3.5v5A1.5,1.5,0,0,0,13.5,10H14v4H5.5A3.5,3.5,0,0,0,2,17.5V24H1.5A1.5,1.5,0,0,0,0,25.5v5A1.5,1.5,0,0,0,1.5,32h5A1.5,1.5,0,0,0,8,30.5v-5A1.5,1.5,0,0,0,6.5,24H6V18h8v6h-.5A1.5,1.5,0,0,0,12,25.5v5A1.5,1.5,0,0,0,13.5,32h5A1.5,1.5,0,0,0,20,30.5v-5A1.5,1.5,0,0,0,18.5,24H18V18h8v6h-.5A1.5,1.5,0,0,0,24,25.5v5A1.5,1.5,0,0,0,25.5,32h5A1.5,1.5,0,0,0,32,30.5v-5A1.5,1.5,0,0,0,30.5,24ZM6,30H2V26H6Zm12,0H14V26h4ZM14,8V4h4V8ZM30,30H26V26h4Z" transform="translate(0 -2)"/></svg>