<svg xmlns="http://www.w3.org/2000/svg" width="43.721" height="51.56" viewBox="0 0 43.721 51.56"><defs><style>.a{fill:#db9195;stroke:#db9195;}.a,.b,.c{stroke-linecap:round;stroke-miterlimit:10;stroke-width:2px;}.a,.c{stroke-linejoin:round;}.b,.c{fill:none;stroke:#000;}</style></defs><g transform="translate(-14 -10.2)"><path class="a" d="M56.72,40.04A20.714,20.714,0,0,1,37.53,60.7c15.45-9.02,17.31-24.74,4.62-39.52L42,21c-3.27-3.78,1.44-9.8,1.44-9.8h1.99a3.252,3.252,0,0,1,3.24,3.24v.02a3.214,3.214,0,0,1-.69,1.98,3.178,3.178,0,0,1-1.29,1h-.01c-1.17,1.16-2.2,3.13.8,5.35.03.02.08.06.11.08a3.641,3.641,0,0,1,.35.24,20.369,20.369,0,0,1,3.95,3.64,19.686,19.686,0,0,1,2.69,4.13,2.014,2.014,0,0,1,.11.21c.15.33.29.65.42.98.1.27.21.54.3.8.11.28.19.55.27.81,0,.01.01.02.01.03.07.25.15.51.22.76.01.04.03.09.04.13.03.12.06.22.08.34a3.593,3.593,0,0,1,.12.47c.03.16.07.3.1.46.03.12.06.26.09.39,0,.01,0,.04.01.05.05.29.1.56.14.82.05.36.09.69.13.99.02.21.04.41.05.58C56.73,39.54,56.72,40.04,56.72,40.04Z"/><path class="a" d="M37.53,60.7a4.321,4.321,0,0,1-.5.03c-.34.02-.69.03-1.03.03A20.724,20.724,0,0,1,15.28,40.04v-.13c0-.28.01-.55.03-.83,0-.12.01-.24.02-.38.01-.17.03-.37.05-.58.03-.26.07-.55.12-.86.02-.15.05-.31.07-.48a26.7,26.7,0,0,1,.8-3.29c.06-.19.13-.4.21-.61.21-.58.45-1.18.73-1.79a1.034,1.034,0,0,1,.11-.21,34.921,34.921,0,0,1,2.69-4.13,20.369,20.369,0,0,1,3.95-3.64,3.641,3.641,0,0,1,.35-.24c.03-.02.08-.06.11-.08,2.95-2.19,2-4.14.85-5.3a3.164,3.164,0,0,1-1.46-1.11.124.124,0,0,1-.03-.02,3.223,3.223,0,0,1-.62-1.9v-.02A3.246,3.246,0,0,1,26.5,11.2H43.44S38.73,17.22,42,21l.15.18C54.84,35.96,52.98,51.68,37.53,60.7Z"/><path d="M16.486,34.819q.137-.688.325-1.354C16.683,33.937,16.576,34.389,16.486,34.819Z"/><path d="M17.085,32.53c-.105.306-.185.622-.274.934C16.894,33.159,16.983,32.848,17.085,32.53Z"/><path d="M16.315,35.7c.048-.278.107-.575.171-.881C16.428,35.112,16.358,35.4,16.315,35.7Z"/><path d="M16.016,44.583"/><path d="M16.065,37.91c-.02.27-.03.53-.03.8C16.035,38.56,16.035,38.29,16.065,37.91Z"/><line class="b" x1="12.833" transform="translate(29.525 19.833)"/><path class="c" d="M56.72,40.042a20.72,20.72,0,0,1-41.44,0v-.135c0-.28.01-.55.031-.83,0-.114.01-.239.021-.374.01-.176.031-.374.052-.581.031-.259.062-.55.114-.861.021-.156.052-.311.073-.477a24.919,24.919,0,0,1,.8-3.29c.062-.2.135-.4.208-.612.218-.581.457-1.183.737-1.8a1.3,1.3,0,0,1,.1-.208,35.422,35.422,0,0,1,2.688-4.131A20.593,20.593,0,0,1,24.06,23.1c.114-.083.239-.166.353-.239.031-.021.073-.052.1-.073,2.958-2.19,2-4.141.851-5.3a3.1,3.1,0,0,1-1.453-1.111.129.129,0,0,1-.031-.021,3.2,3.2,0,0,1-.623-1.9v-.021A3.249,3.249,0,0,1,26.5,11.2h18.93a3.249,3.249,0,0,1,3.238,3.238v.021a3.252,3.252,0,0,1-.685,1.982,3.2,3.2,0,0,1-1.287,1h-.01c-1.173,1.162-2.2,3.134.8,5.355.031.021.073.052.1.073.114.073.239.156.353.239a20.6,20.6,0,0,1,3.954,3.643,20.323,20.323,0,0,1,2.688,4.131,1.292,1.292,0,0,1,.1.208c.156.332.291.654.425.986.1.27.208.54.3.8.1.28.187.55.27.81,0,.01.01.021.01.031.073.249.145.508.218.758.01.042.031.093.042.135.031.114.062.218.083.332.042.156.083.311.114.477s.073.3.1.457c.031.125.062.259.083.394a.062.062,0,0,0,.01.042c.052.291.1.56.145.82q.078.545.125,1c.021.208.042.4.052.581C56.73,39.544,56.72,40.042,56.72,40.042Z"/><path class="c" d="M39.19,36.357a2.83,2.83,0,0,0-2.853-1.851h0a2.667,2.667,0,0,0-2.912,2.319,2.667,2.667,0,0,0,2.912,2.319l-.059.009a2.667,2.667,0,0,1,2.912,2.319,2.667,2.667,0,0,1-2.912,2.319h0a2.83,2.83,0,0,1-2.853-1.851"/><line class="c" y1="2.211" transform="translate(36.308 32.295)"/><line class="c" y1="2.211" transform="translate(36.308 43.789)"/><path class="c" d="M22,20s-6,0-6,6"/><path class="c" d="M17,18a1.959,1.959,0,0,1-2-2"/></g></svg>