<svg xmlns="http://www.w3.org/2000/svg" width="48" height="48" viewBox="0 0 48 48"><defs><style>.a{fill:none;}.a,.b{stroke:#5c4efe;stroke-linecap:round;stroke-linejoin:round;stroke-miterlimit:10;stroke-width:2px;}.b{fill:#5c4efe;}</style></defs><g transform="translate(-12 -12)"><path class="a" d="M48.111,44.547"/><path class="a" d="M23.934,44.547"/><circle class="a" cx="23" cy="23" r="23" transform="translate(13 13)"/><path class="a" d="M48.586,42.674c0,5.63-4.178,10.1-12.554,10.1s-12.607-4.489-12.607-10.1C23.425,42.673,36.45,45.7,48.586,42.674Z"/><path class="b" d="M26.5,27.438c-1.265-3.354-6.441-3.569-6.117,1.318a3.745,3.745,0,0,0,.641,1.813l5.318,6.422h0l5.221-6.266a3.8,3.8,0,0,0,.9-2.485c-.086-4.352-5.051-4.035-6.127-.8"/><path class="a" d="M45.8,27.438c-1.255-3.354-6.387-3.569-6.066,1.318a3.766,3.766,0,0,0,.636,1.813l5.274,6.422h0l5.178-6.266a3.821,3.821,0,0,0,.9-2.485c-.086-4.352-5.009-4.035-6.076-.8"/></g></svg>