<svg xmlns="http://www.w3.org/2000/svg" width="48.637" height="62.972" viewBox="0 0 48.637 62.972"><defs><style>.a,.b{fill:none;stroke:#5c4efe;stroke-linecap:round;stroke-linejoin:round;stroke-width:2px;}.b{stroke-miterlimit:10;}</style></defs><g transform="translate(-9.267 -3.867)"><path class="a" d="M45.527,36.545c5.856,1.475,9.279-7.576.815-9.331L31.5,24.313C32.625,13.438,33.5,6.438,25.438,5c-2.462-.375-5.5,0-4.875,2.5,3.25,14.625-3.125,22.6-4.9,24.455a18.433,18.433,0,0,0,0,26.068c3.126,2.936,6.16,2.727,13.772,2.727,1.438,0,20.633,4.731,20.633,4.731,6.875,1.813,8.971-5.517,4.346-7.079L50.07,56.835"/><path class="a" d="M44.7,45.579c5.826,1.532,8.063-7.4.824-9.034"/><path class="a" d="M43.412,54.779c5.827,1.571,7.188-7.6,1.291-9.2"/><line class="b" x1="5.693" y1="1.583" transform="translate(37.719 53.195)"/><line class="b" x1="5.028" y1="1.432" transform="translate(39.675 44.147)"/><line class="b" x1="4.134" y1="0.844" transform="translate(41.394 35.701)"/></g></svg>