<?xml version="1.0" encoding="utf-8"?>
<!-- Generator: Adobe Illustrator 24.2.3, SVG Export Plug-In . SVG Version: 6.00 Build 0)  -->
<svg version="1.1" id="Layer_1" xmlns="http://www.w3.org/2000/svg" xmlns:xlink="http://www.w3.org/1999/xlink" x="0px" y="0px"
	 viewBox="0 0 500 500" style="enable-background:new 0 0 500 500;" xml:space="preserve">
<style type="text/css">
	.st0{fill:#E68C93;stroke:#E68C93;stroke-width:3;stroke-miterlimit:10;}
	.st1{fill:#E68C93;}
</style>
<g>
	<path class="st0" d="M81.33,229.69c-2.77,0-5.54-0.09-8.29-0.26c-2.75-0.17-5.61-0.57-8.58-1.2v-49.06
		c2.34-0.44,4.89-0.77,7.67-0.99c2.77-0.22,5.35-0.33,7.74-0.33c3.21,0,6.17,0.23,8.87,0.69c2.7,0.46,5.02,1.25,6.97,2.37
		c1.95,1.12,3.47,2.59,4.56,4.42c1.1,1.82,1.64,4.08,1.64,6.75c0,4.04-1.95,7.23-5.84,9.56c3.21,1.22,5.4,2.87,6.57,4.96
		c1.17,2.09,1.75,4.45,1.75,7.08c0,5.31-1.93,9.3-5.8,11.97C94.73,228.35,88.97,229.69,81.33,229.69z M75.57,198.3h5.55
		c3.5,0,6.01-0.45,7.52-1.35c1.51-0.9,2.26-2.35,2.26-4.34c0-2.04-0.78-3.48-2.34-4.31c-1.56-0.83-3.85-1.24-6.86-1.24
		c-0.97,0-2.02,0.01-3.14,0.04c-1.12,0.02-2.12,0.09-2.99,0.18V198.3z M75.57,206.98v13.07c0.83,0.1,1.73,0.17,2.7,0.22
		c0.97,0.05,2.04,0.07,3.21,0.07c3.41,0,6.16-0.49,8.25-1.46c2.09-0.97,3.14-2.77,3.14-5.4c0-2.34-0.88-4-2.63-5
		c-1.75-1-4.26-1.5-7.52-1.5H75.57z"/>
	<path class="st0" d="M169.01,203.7c0,4.33-0.65,8.14-1.93,11.42c-1.29,3.29-3.05,6.04-5.29,8.25c-2.24,2.22-4.9,3.88-7.99,5
		c-3.09,1.12-6.41,1.68-9.96,1.68c-3.46,0-6.72-0.56-9.78-1.68c-3.07-1.12-5.74-2.79-8.03-5c-2.29-2.21-4.09-4.96-5.4-8.25
		c-1.31-3.28-1.97-7.09-1.97-11.42c0-4.33,0.68-8.14,2.04-11.42c1.36-3.29,3.2-6.05,5.51-8.29c2.31-2.24,4.99-3.92,8.03-5.04
		c3.04-1.12,6.24-1.68,9.6-1.68c3.46,0,6.72,0.56,9.78,1.68c3.07,1.12,5.74,2.8,8.03,5.04c2.29,2.24,4.09,5,5.4,8.29
		C168.35,195.56,169.01,199.37,169.01,203.7z M130.39,203.7c0,2.48,0.3,4.72,0.91,6.72c0.61,2,1.48,3.71,2.63,5.15
		c1.14,1.44,2.54,2.54,4.2,3.32c1.65,0.78,3.55,1.17,5.69,1.17c2.09,0,3.98-0.39,5.66-1.17c1.68-0.78,3.09-1.89,4.23-3.32
		c1.14-1.44,2.02-3.15,2.63-5.15c0.61-1.99,0.91-4.23,0.91-6.72s-0.3-4.73-0.91-6.75c-0.61-2.02-1.48-3.75-2.63-5.18
		c-1.14-1.43-2.56-2.54-4.23-3.32c-1.68-0.78-3.57-1.17-5.66-1.17c-2.14,0-4.04,0.4-5.69,1.2c-1.66,0.8-3.05,1.92-4.2,3.36
		c-1.14,1.44-2.02,3.16-2.63,5.18C130.69,199.04,130.39,201.27,130.39,203.7z"/>
	<path class="st0" d="M199.23,178.44c0.88,1.61,1.89,3.59,3.04,5.95c1.15,2.36,2.34,4.92,3.59,7.67c1.24,2.75,2.48,5.56,3.7,8.43
		c1.22,2.87,2.37,5.57,3.44,8.1c1.07-2.53,2.22-5.23,3.44-8.1c1.22-2.87,2.45-5.68,3.7-8.43c1.24-2.75,2.44-5.3,3.59-7.67
		c1.15-2.36,2.16-4.34,3.04-5.95h10.37c0.49,3.36,0.94,7.12,1.35,11.28c0.41,4.16,0.78,8.49,1.1,12.99
		c0.32,4.5,0.61,9.02,0.88,13.54c0.27,4.53,0.5,8.79,0.69,12.77h-11.1c-0.15-4.92-0.34-10.27-0.58-16.06
		c-0.24-5.79-0.61-11.63-1.1-17.52c-0.88,2.04-1.86,4.31-2.93,6.79c-1.07,2.48-2.14,4.96-3.19,7.45c-1.05,2.48-2.06,4.85-3.04,7.12
		c-0.98,2.26-1.81,4.2-2.49,5.8h-7.96c-0.68-1.61-1.51-3.54-2.49-5.8c-0.98-2.26-1.99-4.64-3.04-7.12
		c-1.05-2.48-2.11-4.96-3.18-7.45c-1.07-2.48-2.05-4.75-2.93-6.79c-0.49,5.89-0.85,11.73-1.09,17.52
		c-0.24,5.79-0.44,11.15-0.58,16.06h-11.1c0.19-3.99,0.43-8.25,0.69-12.77c0.27-4.53,0.56-9.04,0.88-13.54
		c0.32-4.5,0.68-8.83,1.09-12.99c0.41-4.16,0.86-7.92,1.35-11.28H199.23z"/>
	<path class="st0" d="M275.44,229.69c-2.77,0-5.54-0.09-8.29-0.26c-2.75-0.17-5.61-0.57-8.58-1.2v-49.06
		c2.34-0.44,4.89-0.77,7.67-0.99c2.77-0.22,5.35-0.33,7.74-0.33c3.21,0,6.17,0.23,8.87,0.69c2.7,0.46,5.02,1.25,6.97,2.37
		c1.95,1.12,3.47,2.59,4.56,4.42c1.09,1.82,1.64,4.08,1.64,6.75c0,4.04-1.95,7.23-5.84,9.56c3.21,1.22,5.4,2.87,6.57,4.96
		c1.17,2.09,1.75,4.45,1.75,7.08c0,5.31-1.93,9.3-5.8,11.97C288.84,228.35,283.08,229.69,275.44,229.69z M269.67,198.3h5.55
		c3.5,0,6.01-0.45,7.52-1.35c1.51-0.9,2.26-2.35,2.26-4.34c0-2.04-0.78-3.48-2.34-4.31c-1.56-0.83-3.84-1.24-6.86-1.24
		c-0.97,0-2.02,0.01-3.14,0.04c-1.12,0.02-2.12,0.09-2.99,0.18V198.3z M269.67,206.98v13.07c0.83,0.1,1.73,0.17,2.7,0.22
		c0.97,0.05,2.04,0.07,3.21,0.07c3.41,0,6.16-0.49,8.25-1.46c2.09-0.97,3.14-2.77,3.14-5.4c0-2.34-0.88-4-2.63-5
		c-1.75-1-4.26-1.5-7.52-1.5H269.67z"/>
	<path class="st0" d="M348.14,229.03c-0.56-1.76-1.17-3.56-1.82-5.42c-0.65-1.85-1.29-3.7-1.94-5.53h-19.76
		c-0.64,1.85-1.28,3.69-1.92,5.55s-1.24,3.66-1.79,5.4h-11.83c1.9-5.45,3.71-10.49,5.42-15.11c1.71-4.62,3.38-8.98,5.02-13.07
		c1.64-4.09,3.25-7.97,4.83-11.64c1.59-3.67,3.23-7.26,4.94-10.77h10.79c1.66,3.5,3.3,7.09,4.91,10.77
		c1.61,3.67,3.24,7.56,4.88,11.64c1.64,4.09,3.31,8.44,5.02,13.07c1.71,4.62,3.52,9.66,5.43,15.11H348.14z M334.46,189.9
		c-0.25,0.73-0.63,1.73-1.12,3c-0.49,1.27-1.05,2.73-1.67,4.38c-0.62,1.66-1.32,3.48-2.1,5.48c-0.77,1.99-1.56,4.08-2.35,6.27h14.47
		c-0.77-2.19-1.52-4.29-2.25-6.29c-0.73-2-1.42-3.83-2.07-5.49c-0.65-1.66-1.23-3.12-1.72-4.38
		C335.16,191.61,334.76,190.62,334.46,189.9z"/>
	<path class="st0" d="M385.36,199.19c2.05-3.45,4-6.89,5.85-10.34c1.85-3.45,3.56-6.92,5.12-10.41h12.56
		c-2.77,5.45-5.65,10.73-8.61,15.84c-2.97,5.11-6.11,10.25-9.42,15.4v19.35h-11.39v-19.2c-3.31-5.16-6.46-10.32-9.45-15.48
		c-2.99-5.16-5.88-10.46-8.65-15.91h13.21c1.55,3.49,3.23,6.97,5.03,10.41C381.4,192.3,383.32,195.75,385.36,199.19z"/>
	<path class="st0" d="M111.74,307.94c1.61,0,2.93-0.13,3.98-0.4c1.05-0.27,1.89-0.63,2.52-1.09c0.63-0.46,1.07-1.01,1.31-1.64
		c0.24-0.63,0.36-1.34,0.36-2.12c0-1.65-0.78-3.03-2.34-4.12c-1.56-1.09-4.23-2.27-8.03-3.54c-1.65-0.58-3.31-1.25-4.96-2.01
		c-1.65-0.75-3.14-1.7-4.45-2.85c-1.31-1.14-2.38-2.53-3.21-4.16c-0.83-1.63-1.24-3.61-1.24-5.95s0.44-4.44,1.31-6.31
		c0.88-1.87,2.12-3.47,3.72-4.78c1.61-1.31,3.55-2.32,5.84-3.03c2.29-0.7,4.87-1.06,7.74-1.06c3.41,0,6.35,0.36,8.83,1.09
		c2.48,0.73,4.53,1.53,6.13,2.41l-3.29,8.98c-1.41-0.73-2.98-1.37-4.71-1.93c-1.73-0.56-3.81-0.84-6.24-0.84
		c-2.73,0-4.68,0.38-5.88,1.13c-1.19,0.75-1.79,1.91-1.79,3.47c0,0.92,0.22,1.7,0.66,2.34c0.44,0.63,1.06,1.21,1.86,1.72
		c0.8,0.51,1.73,0.97,2.77,1.39c1.05,0.41,2.2,0.84,3.47,1.28c2.63,0.97,4.92,1.93,6.86,2.88c1.95,0.95,3.56,2.06,4.85,3.32
		c1.29,1.27,2.25,2.75,2.88,4.45c0.63,1.7,0.95,3.77,0.95,6.21c0,4.72-1.65,8.38-4.96,10.99c-3.31,2.6-8.3,3.91-14.96,3.91
		c-2.24,0-4.26-0.13-6.06-0.4c-1.8-0.27-3.39-0.6-4.78-0.99c-1.39-0.39-2.58-0.8-3.58-1.24c-1-0.44-1.84-0.85-2.52-1.24l3.21-9.05
		c1.51,0.83,3.37,1.57,5.58,2.23C105.81,307.62,108.53,307.94,111.74,307.94z"/>
	<path class="st0" d="M183.79,266.04v9.71h-15.26v40.88h-11.39v-40.88h-15.26v-9.71H183.79z"/>
	<path class="st0" d="M218.17,317.65c-3.55,0-6.62-0.5-9.2-1.5c-2.58-1-4.71-2.38-6.39-4.16c-1.68-1.78-2.92-3.89-3.72-6.35
		c-0.8-2.46-1.2-5.17-1.2-8.14v-31.46h11.39v30.51c0,2.04,0.23,3.79,0.69,5.22c0.46,1.44,1.1,2.6,1.9,3.5
		c0.8,0.9,1.78,1.55,2.92,1.93c1.14,0.39,2.4,0.58,3.76,0.58c2.77,0,5.02-0.85,6.75-2.55c1.73-1.7,2.59-4.6,2.59-8.69v-30.51h11.39
		v31.46c0,2.97-0.41,5.69-1.24,8.18c-0.83,2.48-2.09,4.61-3.8,6.39c-1.7,1.78-3.87,3.15-6.5,4.12
		C224.89,317.17,221.77,317.65,218.17,317.65z"/>
	<path class="st0" d="M301.61,291.3c0,4.38-0.68,8.2-2.04,11.46c-1.36,3.26-3.3,5.96-5.8,8.1c-2.51,2.14-5.56,3.75-9.16,4.82
		c-3.6,1.07-7.64,1.61-12.12,1.61c-2.04,0-4.43-0.09-7.15-0.26c-2.73-0.17-5.4-0.52-8.03-1.06V266.7c2.63-0.49,5.37-0.81,8.21-0.99
		c2.85-0.17,5.29-0.25,7.34-0.25c4.33,0,8.26,0.49,11.79,1.46c3.53,0.97,6.56,2.51,9.09,4.6c2.53,2.09,4.48,4.77,5.84,8.03
		C300.93,282.81,301.61,286.73,301.61,291.3z M268.69,307.36c0.54,0.05,1.16,0.09,1.86,0.11c0.71,0.02,1.54,0.04,2.52,0.04
		c5.69,0,9.92-1.43,12.67-4.31c2.75-2.87,4.12-6.84,4.12-11.9c0-5.3-1.31-9.32-3.94-12.04s-6.79-4.09-12.48-4.09
		c-0.78,0-1.58,0.01-2.41,0.04c-0.83,0.03-1.61,0.09-2.34,0.18V307.36z"/>
	<path class="st0" d="M318.4,266.04h11.39v50.59H318.4V266.04z"/>
	<path class="st0" d="M396.95,291.3c0,4.33-0.65,8.14-1.93,11.42c-1.29,3.29-3.05,6.04-5.29,8.25c-2.24,2.21-4.9,3.88-7.99,5
		c-3.09,1.12-6.41,1.68-9.96,1.68c-3.46,0-6.72-0.56-9.78-1.68c-3.07-1.12-5.74-2.79-8.03-5c-2.29-2.21-4.09-4.96-5.4-8.25
		c-1.31-3.29-1.97-7.09-1.97-11.42c0-4.33,0.68-8.14,2.04-11.42c1.36-3.29,3.2-6.05,5.51-8.29c2.31-2.24,4.99-3.92,8.03-5.04
		c3.04-1.12,6.24-1.68,9.6-1.68c3.46,0,6.72,0.56,9.78,1.68c3.07,1.12,5.74,2.8,8.03,5.04c2.29,2.24,4.09,5,5.4,8.29
		C396.29,283.16,396.95,286.97,396.95,291.3z M358.33,291.3c0,2.48,0.3,4.72,0.91,6.72c0.61,2,1.48,3.71,2.63,5.15
		c1.14,1.44,2.54,2.54,4.2,3.32c1.65,0.78,3.55,1.17,5.69,1.17c2.09,0,3.98-0.39,5.66-1.17c1.68-0.78,3.09-1.88,4.23-3.32
		c1.14-1.43,2.02-3.15,2.63-5.15c0.61-2,0.91-4.23,0.91-6.72s-0.3-4.73-0.91-6.75c-0.61-2.02-1.48-3.75-2.63-5.18
		c-1.14-1.43-2.55-2.54-4.23-3.32c-1.68-0.78-3.57-1.17-5.66-1.17c-2.14,0-4.04,0.4-5.69,1.2c-1.66,0.8-3.05,1.92-4.2,3.36
		s-2.02,3.16-2.63,5.18C358.63,286.64,358.33,288.87,358.33,291.3z"/>
</g>
<g>
	<ellipse class="st1" cx="143.35" cy="203.06" rx="12.6" ry="14.18"/>
	<path class="st1" d="M143.35,218.74c-7.78,0-14.1-7.03-14.1-15.68s6.33-15.68,14.1-15.68s14.1,7.03,14.1,15.68
		S151.12,218.74,143.35,218.74z M143.35,190.38c-6.12,0-11.1,5.69-11.1,12.68s4.98,12.68,11.1,12.68s11.1-5.69,11.1-12.68
		S149.47,190.38,143.35,190.38z"/>
</g>
<g>
	<ellipse class="st1" cx="371.09" cy="290.95" rx="12.6" ry="14.18"/>
	<path class="st1" d="M371.09,306.62c-7.78,0-14.1-7.03-14.1-15.68s6.33-15.68,14.1-15.68c7.78,0,14.1,7.03,14.1,15.68
		S378.86,306.62,371.09,306.62z M371.09,278.27c-6.12,0-11.1,5.69-11.1,12.68s4.98,12.68,11.1,12.68c6.12,0,11.1-5.69,11.1-12.68
		S377.21,278.27,371.09,278.27z"/>
</g>
</svg>
